<svg width="497" height="452" viewBox="0 0 497 452" fill="none" xmlns="http://www.w3.org/2000/svg">
<g clip-path="url(#clip0_120_2131)">
<path d="M497 226C497.051 257.483 490.501 288.626 477.773 317.414C477.362 318.344 476.946 319.269 476.524 320.187C476.315 320.649 476.102 321.106 475.888 321.568C475.674 322.025 475.46 322.487 475.24 322.943C474.959 323.535 474.678 324.121 474.391 324.707C474.036 325.446 473.676 326.178 473.304 326.911C473.259 327.012 473.209 327.114 473.152 327.215C472.843 327.835 472.533 328.455 472.212 329.075C472.145 329.21 472.077 329.346 472.004 329.475C471.638 330.197 471.261 330.918 470.879 331.634V331.639C470.473 332.4 470.066 333.159 469.657 333.916C468.644 335.787 467.603 337.642 466.533 339.479C466.213 340.026 465.897 340.572 465.571 341.113C465.273 341.621 464.974 342.122 464.67 342.624C464.462 342.973 464.254 343.317 464.04 343.661C463.702 344.219 463.359 344.777 463.01 345.335C463.004 345.34 463.004 345.34 463.004 345.346C462.233 346.586 461.445 347.82 460.652 349.043H460.646C460.28 349.612 459.909 350.176 459.537 350.74V350.745C458.417 352.436 457.275 354.11 456.11 355.767V355.772C456.105 355.773 456.101 355.775 456.098 355.778V355.784L456.087 355.795C455.164 357.119 454.222 358.433 453.262 359.734V359.74C452.648 360.574 452.029 361.408 451.404 362.231C450.892 362.908 450.374 363.582 449.851 364.255C449.744 364.401 449.631 364.542 449.513 364.688V364.694C449.373 364.88 449.232 365.06 449.08 365.246V365.252C446.857 368.098 444.566 370.888 442.208 373.621H442.202C442.078 373.774 441.949 373.92 441.819 374.067C441.695 374.213 441.56 374.36 441.431 374.512H441.425C441.228 374.743 441.026 374.974 440.823 375.205C440.626 375.436 440.418 375.667 440.21 375.898V375.904C427.917 389.792 413.967 402.114 398.672 412.594C396.635 413.997 394.571 415.363 392.481 416.691C391.963 417.023 391.445 417.35 390.922 417.677C390.764 417.784 390.607 417.88 390.449 417.976C390.173 418.151 389.892 418.325 389.611 418.5C389.335 418.669 389.053 418.844 388.772 419.013C387.652 419.701 386.521 420.377 385.389 421.042C385.108 421.211 384.821 421.374 384.534 421.544C384.252 421.707 383.965 421.87 383.678 422.034C383.674 422.04 383.669 422.045 383.664 422.049C383.658 422.052 383.651 422.055 383.644 422.056L383.633 422.062L383.622 422.073H383.616C382.198 422.891 380.774 423.696 379.333 424.474C376.755 425.883 374.151 427.241 371.521 428.549C370.868 428.876 370.21 429.197 369.551 429.518C369.005 429.783 368.453 430.048 367.908 430.307C367.756 430.381 367.609 430.454 367.457 430.522C367.001 430.736 366.545 430.95 366.09 431.158C365.594 431.395 365.093 431.62 364.598 431.846C364.041 432.1 363.489 432.348 362.932 432.596C360.838 433.531 358.722 434.433 356.6 435.301C349.02 438.409 341.273 441.092 333.394 443.338C333.029 443.445 332.657 443.552 332.286 443.653C328.914 444.6 325.518 445.466 322.098 446.251C316.127 447.627 310.1 448.756 304.02 449.639C304.009 449.639 303.992 449.644 303.981 449.644C303.255 449.751 302.523 449.853 301.797 449.954C301.735 449.965 301.667 449.977 301.6 449.982C301.594 449.988 301.588 449.988 301.577 449.982C301.577 449.982 301.577 449.988 301.572 449.982C300.767 450.089 299.962 450.196 299.151 450.298C299.095 450.309 299.039 450.315 298.983 450.32C298.228 450.411 297.469 450.501 296.709 450.585C295.893 450.676 295.076 450.76 294.255 450.845C293.63 450.907 293.005 450.969 292.38 451.025C292.325 451.036 292.268 451.042 292.212 451.042C291.643 451.093 291.075 451.143 290.506 451.188C290.484 451.188 290.456 451.194 290.433 451.194C289.938 451.239 289.442 451.273 288.947 451.312C283.122 451.775 277.24 452.004 271.302 452C264.858 452 258.479 451.731 252.166 451.194C252.143 451.194 252.121 451.188 252.098 451.188C250.753 451.076 249.41 450.952 248.068 450.816C247.714 450.783 247.365 450.743 247.01 450.709C246.943 450.704 246.875 450.698 246.808 450.687C246.701 450.676 246.594 450.664 246.481 450.653C246.425 450.647 246.363 450.642 246.307 450.63C245.839 450.58 245.372 450.529 244.9 450.473C244.376 450.411 243.847 450.349 243.324 450.281C242.8 450.219 242.271 450.151 241.748 450.078C241.635 450.067 241.517 450.056 241.404 450.033C241.022 449.988 240.639 449.937 240.262 449.881C240.076 449.858 239.896 449.83 239.716 449.802C239.35 449.751 238.99 449.701 238.624 449.644C238.613 449.644 238.596 449.639 238.585 449.639C227.091 447.976 215.745 445.416 204.651 441.979H204.645C204.043 441.793 203.441 441.602 202.839 441.41C202.659 441.359 202.479 441.303 202.298 441.241C200.734 440.739 199.178 440.221 197.633 439.686C195.499 438.953 193.381 438.186 191.278 437.386C190.704 437.166 190.136 436.946 189.561 436.727C188.419 436.276 187.282 435.825 186.151 435.363C184.22 434.574 182.303 433.76 180.398 432.922H180.393V432.917C178.614 432.133 176.849 431.326 175.097 430.493C175.045 430.478 174.996 430.455 174.95 430.426C174.945 430.426 174.945 430.42 174.939 430.42C174.551 430.24 174.162 430.054 173.774 429.868L173.763 429.862C164.109 425.228 154.8 419.906 145.908 413.935C143.054 412.024 140.249 410.05 137.493 408.012C135.27 406.372 133.079 404.69 130.919 402.968C120.163 394.407 110.208 384.882 101.179 374.512H101.174V374.506C100.538 373.779 99.9184 373.058 99.288 372.325V372.319C99.198 372.218 99.1136 372.117 99.0291 372.015C98.6295 371.547 98.2412 371.085 97.8528 370.612V370.606C97.3237 369.981 96.8059 369.353 96.2994 368.724C96.1868 368.589 96.0799 368.459 95.9729 368.324H95.9673V368.318C95.5508 367.811 95.1399 367.298 94.7347 366.785C94.5264 366.531 94.3238 366.272 94.1212 366.013H94.1156V366.007C92.8886 364.457 91.686 362.892 90.5078 361.313V361.307C90.1814 360.873 89.8605 360.439 89.5454 359.999H89.5397C88.0313 357.959 86.5623 355.895 85.1327 353.806V353.8C84.5924 353.017 84.0577 352.227 83.5286 351.433C82.9996 350.638 82.4761 349.842 81.9583 349.043H81.9527C81.418 348.22 80.889 347.394 80.3655 346.563C80.3373 346.518 80.3092 346.479 80.2867 346.439C79.7689 345.622 79.2586 344.799 78.7558 343.971C78.3506 343.311 77.951 342.658 77.5626 341.998C77.2924 341.553 77.0279 341.113 76.769 340.663C76.6733 340.51 76.5889 340.358 76.5045 340.212C75.9078 339.192 75.3225 338.172 74.7371 337.146C74.0561 335.94 73.3807 334.722 72.7222 333.505C72.452 333.003 72.1819 332.496 71.9173 331.989C71.8217 331.825 71.7372 331.662 71.6528 331.493C71.3376 330.896 71.0224 330.298 70.7129 329.695C70.4033 329.098 70.0937 328.495 69.7898 327.892C69.4859 327.289 69.1819 326.686 68.8836 326.077C68.6585 325.62 68.4334 325.158 68.2139 324.702C68.191 324.663 68.1704 324.624 68.152 324.583C68.0506 324.369 67.9437 324.161 67.848 323.946C67.8256 323.914 67.8085 323.878 67.7974 323.839C67.5666 323.366 67.3415 322.898 67.122 322.425C66.8293 321.816 66.5479 321.202 66.2665 320.587C66.0638 320.159 65.8725 319.725 65.6755 319.291C65.3941 318.683 65.1183 318.068 64.8481 317.448C64.5611 316.811 64.2853 316.169 64.0095 315.526C63.9363 315.363 63.8687 315.205 63.8012 315.042C63.6717 314.749 63.5479 314.456 63.4241 314.163C63.092 313.385 62.7656 312.596 62.4448 311.812C62.0789 310.928 61.7224 310.041 61.3754 309.152C61.0433 308.324 60.7206 307.493 60.4073 306.661L60.2891 306.357V306.351C55.3986 293.481 51.6984 280.188 49.235 266.641V266.635C47.8304 258.9 46.8309 251.097 46.2407 243.257C46.207 242.829 46.1788 242.4 46.1507 241.972C45.7792 236.669 45.5972 231.345 45.6047 226C45.6047 223.627 45.6422 221.266 45.7173 218.916C47.1766 169.781 64.6682 122.478 95.5171 84.2399C96.8735 82.5548 98.2544 80.8903 99.6596 79.2465C141.051 30.7439 202.591 0 271.302 0C351.636 0 422.171 42.027 462.16 105.324C464.243 108.604 466.235 111.944 468.138 115.345C487.12 149.123 497.062 187.241 497 226Z" fill="#F2F2F2"/>
<path d="M380.594 403.39C379.783 405.633 378.975 407.876 378.168 410.12C378.016 410.548 377.858 410.971 377.706 411.399C375.646 417.114 373.585 422.83 371.521 428.549C370.868 428.876 370.209 429.197 369.551 429.518C369.005 429.783 368.453 430.048 367.907 430.307C367.756 430.381 367.609 430.454 367.457 430.522C367.001 430.736 366.545 430.95 366.09 431.158C365.594 431.395 365.093 431.62 364.598 431.846C364.041 432.1 363.489 432.348 362.932 432.596C362.642 431.84 362.477 431.043 362.442 430.234C362.418 428.965 362.568 427.698 362.887 426.469C363.377 424.44 364.153 422.451 364.666 420.416C364.694 420.321 364.716 420.219 364.739 420.123C365.881 415.266 365.353 410.165 363.242 405.645C361.97 402.951 360.146 400.499 359.352 397.625C358.663 394.926 358.969 392.068 360.213 389.577C360.676 388.61 361.256 387.705 361.941 386.883C362.105 386.674 362.279 386.477 362.459 386.28C364.115 384.459 366.314 383.223 368.729 382.757C373.35 381.934 378.179 384.397 380.763 388.263C381.821 389.817 382.466 391.615 382.637 393.488C382.918 396.875 381.748 400.195 380.594 403.39Z" fill="#E4E4E4"/>
<path d="M367.834 426.283C366.776 424.328 365.003 422.614 364.666 420.416C363.568 413.36 360.923 408.299 356.538 405.43C355.266 404.602 355.064 402.77 354.281 401.452C353.932 400.86 353.578 400.268 353.212 399.688C352.621 398.724 352.006 397.779 351.366 396.853C350.153 395.062 348.816 393.36 347.364 391.758C346.762 391.087 346.126 390.439 345.467 389.825L345.462 389.819C345.051 389.425 344.634 389.047 344.201 388.681C344.032 388.534 343.857 388.388 343.677 388.241L343.666 388.23C342.906 387.569 342.109 386.952 341.28 386.381C339.372 385.091 337.216 384.194 335.004 384.91C334.135 385.209 333.297 385.594 332.505 386.06C332.1 386.291 331.7 386.533 331.301 386.776C331.03 386.939 330.76 387.103 330.49 387.272C330.271 387.401 330.051 387.531 329.832 387.655C328.132 388.635 326.425 389.597 324.71 390.54C324.462 390.681 324.214 390.817 323.961 390.952H323.956C323.781 391.053 323.601 391.149 323.421 391.245C323.078 391.437 322.729 391.628 322.385 391.814C321.355 392.372 320.323 392.924 319.29 393.471C318.761 393.753 318.226 394.023 317.691 394.294C317.444 394.418 317.196 394.542 316.954 394.672H316.948C316.858 394.717 316.774 394.762 316.684 394.807C315.952 395.184 315.232 395.573 314.534 395.996C312.509 397.217 310.75 398.833 309.361 400.747C309.091 401.119 308.832 401.502 308.596 401.897C308.286 402.407 308.004 402.934 307.751 403.475C307.577 403.841 307.414 404.207 307.267 404.579V404.585C305.884 408.147 305.69 412.063 306.716 415.744V415.75C306.783 416.003 306.857 416.251 306.941 416.499C307.076 416.916 307.228 417.334 307.397 417.739C307.583 418.192 307.794 418.634 308.027 419.064V419.069C309.28 421.209 310.843 423.15 312.665 424.829L312.721 424.886C312.946 425.105 313.177 425.331 313.402 425.551C313.526 425.669 313.656 425.787 313.791 425.9C315.738 427.574 318.884 428.842 320.663 430.561C321.614 431.48 322.171 432.522 321.952 433.824C321.367 437.279 321.496 439.516 322.093 440.954C323.714 444.876 328.802 442.881 332.286 443.653C332.657 443.552 333.028 443.445 333.394 443.338C341.273 441.092 349.02 438.409 356.6 435.301C358.722 434.433 360.838 433.531 362.932 432.596C363.489 432.348 364.041 432.1 364.598 431.846C365.093 431.621 365.594 431.395 366.09 431.158C366.545 430.95 367.001 430.736 367.457 430.522C367.609 430.454 367.756 430.381 367.907 430.307C368.453 430.048 369.005 429.783 369.551 429.518C368.994 428.431 368.414 427.354 367.834 426.283Z" fill="#E4E4E4"/>
<path d="M326.655 371.567C327.838 367.989 326.211 365.628 322.025 364.376C321.882 364.246 321.709 364.155 321.521 364.109C321.333 364.064 321.137 364.066 320.951 364.116C320.765 364.166 320.594 364.262 320.454 364.396C320.314 364.529 320.21 364.695 320.151 364.879L316.496 375.723C312.673 374.744 309.869 375.415 309.26 379.201C310.769 375.345 309.35 372.925 305.105 371.894C304.967 371.756 304.797 371.655 304.61 371.601C304.423 371.547 304.225 371.542 304.035 371.585C303.845 371.628 303.669 371.718 303.524 371.848C303.378 371.977 303.268 372.142 303.203 372.325L300.799 382.092C297.872 386.508 296.434 391.746 296.697 397.039C296.96 402.332 298.91 407.402 302.26 411.505C305.61 415.607 310.185 418.527 315.314 419.837C320.443 421.146 325.855 420.775 330.758 418.779C335.661 416.783 339.797 413.267 342.558 408.746C345.32 404.225 346.562 398.937 346.103 393.657C345.644 388.377 343.508 383.383 340.008 379.408C336.508 375.432 331.828 372.684 326.655 371.567H326.655Z" fill="#E4E4E4"/>
<path d="M324.328 402.472C323.834 402.736 323.255 402.794 322.719 402.632C322.182 402.47 321.732 402.102 321.466 401.608C321.429 401.537 321.421 401.454 321.444 401.378C321.467 401.301 321.52 401.237 321.59 401.199C321.661 401.161 321.743 401.153 321.82 401.176C321.896 401.199 321.96 401.251 321.998 401.322C322.188 401.674 322.51 401.937 322.893 402.052C323.276 402.168 323.689 402.126 324.041 401.937C324.394 401.748 324.657 401.426 324.772 401.043C324.888 400.659 324.847 400.245 324.659 399.892C324.621 399.822 324.613 399.739 324.636 399.662C324.66 399.586 324.712 399.522 324.782 399.484C324.853 399.446 324.935 399.438 325.012 399.461C325.088 399.484 325.153 399.536 325.191 399.606C325.455 400.101 325.513 400.681 325.351 401.218C325.189 401.755 324.821 402.206 324.328 402.472Z" fill="white"/>
<path d="M322.116 398.025C323.292 397.394 324.048 396.515 323.805 396.062C323.563 395.61 322.413 395.755 321.238 396.386C320.063 397.018 319.306 397.897 319.549 398.349C319.792 398.802 320.941 398.657 322.116 398.025Z" fill="white"/>
<path d="M309.623 398.792C309.782 398.02 310.108 397.293 310.579 396.661C311.049 396.03 311.653 395.509 312.346 395.137C313.04 394.764 313.806 394.548 314.592 394.505C315.378 394.462 316.164 394.592 316.894 394.886C317.261 393.761 317.287 392.552 316.969 391.413C316.65 390.274 316.001 389.254 315.104 388.484C314.207 387.714 313.102 387.227 311.929 387.086C310.756 386.945 309.567 387.155 308.513 387.69C307.459 388.225 306.587 389.061 306.008 390.092C305.428 391.124 305.167 392.304 305.258 393.484C305.348 394.663 305.786 395.79 306.516 396.721C307.246 397.651 308.235 398.344 309.358 398.712C309.446 398.741 309.534 398.768 309.623 398.792Z" fill="white"/>
<path d="M311.408 396.62C312.543 396.62 313.464 395.699 313.464 394.562C313.464 393.426 312.543 392.504 311.408 392.504C310.273 392.504 309.353 393.426 309.353 394.562C309.353 395.699 310.273 396.62 311.408 396.62Z" fill="#3F3D56"/>
<path d="M323.85 391.386C324.009 390.614 324.335 389.887 324.805 389.255C325.276 388.624 325.879 388.103 326.573 387.73C327.266 387.358 328.033 387.142 328.819 387.099C329.604 387.055 330.39 387.185 331.12 387.479C331.488 386.355 331.514 385.146 331.195 384.007C330.876 382.867 330.228 381.848 329.331 381.078C328.433 380.308 327.328 379.821 326.155 379.68C324.982 379.538 323.793 379.749 322.739 380.284C321.685 380.819 320.814 381.655 320.234 382.686C319.655 383.718 319.394 384.898 319.484 386.078C319.575 387.257 320.013 388.384 320.742 389.314C321.472 390.245 322.461 390.938 323.584 391.306C323.672 391.335 323.761 391.361 323.85 391.386Z" fill="white"/>
<path d="M326.389 389.099C327.524 389.099 328.444 388.178 328.444 387.041C328.444 385.905 327.524 384.983 326.389 384.983C325.254 384.983 324.334 385.905 324.334 387.041C324.334 388.178 325.254 389.099 326.389 389.099Z" fill="#3F3D56"/>
<path d="M336.703 386.899L329.686 394.059L330.394 394.755L337.411 387.595L336.703 386.899Z" fill="white"/>
<path d="M338.933 390.364L330.454 395.709L330.983 396.549L339.461 391.205L338.933 390.364Z" fill="white"/>
<path d="M314.631 402.148L304.793 404.045L304.981 405.021L314.819 403.124L314.631 402.148Z" fill="white"/>
<path d="M315.579 403.702L306.444 407.821L306.851 408.727L315.986 404.608L315.579 403.702Z" fill="white"/>
<path d="M25.864 250.848C6.62037 233.506 -5.03181 205.927 2.12904 181.015C18.2892 204.1 42.0832 220.717 69.3011 227.927C79.808 230.669 91.7794 232.624 98.1716 241.413C102.149 246.881 103.073 254.107 102.131 260.806C101.19 267.506 98.558 273.832 95.9503 280.073L96.0883 281.756C70.6754 276.805 45.1076 268.19 25.864 250.848Z" fill="#E6E6E6"/>
<path d="M2.66658 181.093C7.5575 201.753 19.0714 220.982 35.2274 234.781C38.7202 237.765 42.5228 240.487 46.7882 242.247C50.9591 243.93 55.504 244.465 59.9508 243.794C64.1096 243.253 68.3009 242.217 72.5188 242.697C76.9645 243.203 80.6788 245.698 83.2735 249.289C86.4482 253.684 87.8566 258.959 89.0549 264.165C90.3853 269.946 91.6758 275.971 95.4871 280.695C95.9489 281.268 95.0349 281.952 94.5738 281.38C87.9427 273.161 88.8498 261.783 84.0473 252.7C81.8064 248.462 78.2763 244.874 73.4144 243.984C69.1628 243.206 64.8397 244.27 60.6336 244.855C56.2171 245.469 51.9442 245.321 47.7071 243.822C43.3728 242.289 39.456 239.71 35.9022 236.829C27.8924 230.236 20.9676 222.423 15.3815 213.676C8.95093 203.728 4.26711 192.752 1.53272 181.223C1.36377 180.51 2.49873 180.384 2.66657 181.093L2.66658 181.093Z" fill="white"/>
<path d="M29.7396 230.573C27.0203 232.979 23.5357 234.338 19.908 234.408C16.2804 234.478 12.7459 233.255 9.93593 230.956C9.36894 230.489 10.0671 229.585 10.6348 230.053C13.2475 232.198 16.54 233.337 19.9179 233.265C23.2958 233.193 26.5367 231.914 29.0556 229.659C29.6036 229.169 30.2845 230.087 29.7396 230.573V230.573Z" fill="white"/>
<path d="M57.8783 244.347C58.403 236.939 56.1199 229.605 51.4842 223.807C51.0245 223.233 51.9384 222.549 52.3976 223.122C57.2103 229.164 59.5707 236.801 59.0077 244.51C58.9536 245.244 57.8244 245.078 57.8783 244.347Z" fill="white"/>
<path d="M10.4431 203.478C11.6889 202.767 12.7389 201.757 13.4986 200.539C14.2584 199.321 14.7042 197.934 14.7959 196.501C14.8408 195.766 15.9699 195.933 15.9254 196.663C15.8166 198.246 15.3225 199.778 14.486 201.125C13.6496 202.473 12.4964 203.594 11.1271 204.393C11.0043 204.479 10.8534 204.515 10.7051 204.493C10.5567 204.472 10.4221 204.395 10.3284 204.278C10.2385 204.156 10.2 204.004 10.2215 203.854C10.243 203.704 10.3226 203.569 10.4431 203.478Z" fill="white"/>
<path d="M82.4946 145.966C82.4796 146.426 82.4647 146.886 82.4573 147.351C82.2881 153.533 82.6207 159.719 83.4519 165.846C83.5086 166.321 83.5733 166.802 83.6435 167.274C85.8031 182.016 90.6772 196.228 98.0181 209.189C100.944 214.343 104.257 219.267 107.929 223.919C113.001 230.342 119.01 236.902 121.59 244.407C121.868 245.187 122.097 245.983 122.277 246.792L98.1283 281.457C98.0339 281.508 97.9472 281.565 97.8525 281.617L96.9515 283.045C96.7454 282.819 96.5365 282.579 96.3304 282.352C96.2103 282.221 96.0956 282.083 95.9755 281.952C95.8971 281.862 95.819 281.772 95.7431 281.695C95.7169 281.666 95.691 281.635 95.6726 281.611C95.5968 281.535 95.5345 281.455 95.4665 281.385C94.2951 280.049 93.1311 278.703 91.9743 277.346C91.9664 277.341 91.9664 277.341 91.9639 277.328C83.1765 266.968 75.1755 255.783 69.1243 243.738C68.9424 243.376 68.7523 243.008 68.5813 242.63C65.8838 237.185 63.6352 231.529 61.858 225.717C60.895 222.532 60.0938 219.3 59.4572 216.033C57.8286 207.59 57.5365 198.943 58.5915 190.409C60.697 173.397 68.2127 157.248 81.4736 146.758C81.813 146.49 82.1472 146.229 82.4946 145.966Z" fill="#E6E6E6"/>
<path d="M82.8797 146.351C74.363 165.795 71.9947 188.09 76.597 208.848C77.592 213.336 78.9914 217.802 81.339 221.779C83.6569 225.637 86.9645 228.804 90.9181 230.95C94.5642 233.025 98.5338 234.724 101.613 237.65C104.858 240.735 106.324 244.966 106.236 249.398C106.128 254.821 104.081 259.881 101.908 264.761C99.4945 270.178 96.902 275.767 97.1046 281.837C97.1291 282.573 95.988 282.568 95.9635 281.833C95.6111 271.273 103.176 262.735 104.803 252.588C105.562 247.853 104.901 242.86 101.554 239.218C98.6274 236.033 94.5354 234.277 90.8255 232.208C86.93 230.036 83.6076 227.341 81.1255 223.59C78.5865 219.753 77.0097 215.333 75.9045 210.89C73.4733 200.797 72.642 190.384 73.4412 180.032C74.2879 168.212 77.1475 156.625 81.8963 145.771C82.1905 145.1 83.1719 145.684 82.8797 146.351L82.8797 146.351Z" fill="white"/>
<path d="M74.7454 202.18C71.128 202.461 67.5285 201.445 64.5899 199.314C61.6513 197.183 59.5648 194.076 58.7031 190.546C58.5312 189.832 59.6322 189.531 59.8044 190.246C60.6007 193.534 62.5446 196.429 65.2851 198.408C68.0256 200.386 71.3822 201.319 74.7492 201.037C75.4809 200.977 75.473 202.12 74.7454 202.18Z" fill="white"/>
<path d="M88.931 230.142C93.8043 224.543 96.3912 217.31 96.1758 209.887C96.1538 209.151 97.2949 209.156 97.3168 209.89C97.5266 217.616 94.8193 225.137 89.7351 230.952C89.2502 231.506 88.4486 230.693 88.931 230.142L88.931 230.142Z" fill="white"/>
<path d="M75.6298 168.912C77.0521 169.096 78.4976 168.922 79.8364 168.408C81.1753 167.894 82.3657 167.054 83.3005 165.965C83.7783 165.406 84.5793 166.22 84.1047 166.776C83.0662 167.974 81.7505 168.9 80.2725 169.471C78.7945 170.043 77.1992 170.243 75.626 170.055C75.4762 170.05 75.3341 169.987 75.2285 169.881C75.1228 169.775 75.0617 169.632 75.0574 169.482C75.0586 169.33 75.1194 169.186 75.2266 169.079C75.3338 168.973 75.4787 168.913 75.6298 168.912V168.912Z" fill="white"/>
<path d="M303.099 148.278C306.454 129.699 300.879 108.618 285.66 97.473C286.638 117.981 280.341 138.175 267.882 154.481C263.054 160.752 257.033 167.224 257.267 175.139C257.413 180.063 260.1 184.636 263.625 188.073C267.151 191.509 271.484 193.976 275.766 196.405L276.436 197.435C288.861 183.235 299.745 166.857 303.099 148.278Z" fill="#E6E6E6"/>
<path d="M285.385 97.7583C291.835 111.989 293.643 127.892 290.552 143.21C289.945 146.519 288.821 149.712 287.221 152.671C285.57 155.503 283.191 157.841 280.333 159.441C277.697 160.986 274.823 162.261 272.608 164.422C271.491 165.544 270.623 166.891 270.062 168.372C269.501 169.854 269.259 171.438 269.353 173.02C269.482 176.968 271.021 180.634 272.65 184.167C274.459 188.089 276.399 192.134 276.309 196.556C276.298 197.092 277.129 197.078 277.14 196.543C277.297 188.849 271.707 182.703 270.426 175.329C269.829 171.889 270.263 168.246 272.666 165.563C274.767 163.216 277.73 161.898 280.412 160.356C283.224 158.836 285.621 156.65 287.394 153.988C289.139 151.121 290.384 147.976 291.076 144.69C292.751 137.317 293.257 129.726 292.577 122.196C291.849 113.597 289.657 105.186 286.096 97.3267C285.875 96.8404 285.166 97.2752 285.385 97.7584L285.385 97.7583Z" fill="white"/>
<path d="M291.837 138.336C294.474 138.507 297.086 137.733 299.206 136.153C301.325 134.573 302.815 132.291 303.409 129.712C303.528 129.19 302.723 128.981 302.605 129.504C302.056 131.906 300.668 134.032 298.691 135.499C296.714 136.966 294.278 137.678 291.824 137.504C291.29 137.467 291.307 138.3 291.837 138.336Z" fill="white"/>
<path d="M281.772 158.833C278.17 154.802 276.218 149.56 276.305 144.152C276.314 143.616 275.483 143.63 275.474 144.166C275.394 149.794 277.437 155.245 281.194 159.431C281.553 159.83 282.129 159.23 281.772 158.833Z" fill="white"/>
<path d="M290.879 114.119C289.845 114.266 288.79 114.153 287.81 113.791C286.831 113.43 285.956 112.83 285.265 112.046C284.911 111.643 284.336 112.243 284.687 112.644C285.454 113.506 286.421 114.168 287.503 114.57C288.585 114.972 289.748 115.103 290.892 114.951C291.001 114.946 291.104 114.899 291.18 114.82C291.256 114.742 291.299 114.637 291.301 114.528C291.298 114.418 291.253 114.313 291.174 114.237C291.095 114.16 290.989 114.118 290.879 114.119L290.879 114.119Z" fill="white"/>
<path d="M223.78 113.186C223.994 113.444 224.207 113.702 224.419 113.967C227.269 117.45 229.833 121.16 232.084 125.059C232.263 125.358 232.439 125.663 232.609 125.967C237.932 135.418 241.456 145.778 243.003 156.518C243.614 160.792 243.9 165.107 243.857 169.425C243.799 175.388 243.261 181.848 245.118 187.321C245.305 187.895 245.528 188.456 245.785 189.001L275.128 198.174C275.205 198.162 275.281 198.156 275.358 198.143L276.513 198.563C276.531 198.34 276.544 198.109 276.562 197.887C276.573 197.758 276.577 197.627 276.588 197.498C276.593 197.411 276.598 197.324 276.607 197.246C276.609 197.217 276.611 197.188 276.61 197.166C276.62 197.088 276.621 197.015 276.628 196.944C276.708 195.652 276.778 194.357 276.84 193.059C276.842 193.052 276.842 193.052 276.838 193.044C277.283 183.155 276.907 173.142 275.026 163.505C274.969 163.215 274.915 162.918 274.845 162.624C273.973 158.285 272.748 154.024 271.183 149.885C270.319 147.621 269.34 145.402 268.252 143.237C265.429 137.649 261.745 132.54 257.337 128.098C248.547 119.244 237.028 113.303 224.72 113.186C224.406 113.183 224.097 113.182 223.78 113.186Z" fill="#E6E6E6"/>
<path d="M223.73 113.58C237.436 121.053 248.441 132.661 255.184 146.755C256.689 149.763 257.711 152.99 258.213 156.317C258.597 159.574 258.103 162.875 256.783 165.876C255.608 168.699 254.079 171.45 253.61 174.51C253.393 176.079 253.51 177.677 253.953 179.199C254.396 180.72 255.155 182.131 256.181 183.338C258.658 186.412 262.091 188.411 265.515 190.25C269.318 192.291 273.3 194.351 275.887 197.936C276.2 198.37 276.855 197.858 276.542 197.424C272.041 191.187 263.883 189.65 258.426 184.534C255.88 182.147 254.037 178.977 254.342 175.386C254.609 172.245 256.182 169.407 257.397 166.559C258.728 163.65 259.327 160.459 259.143 157.265C258.812 153.923 257.915 150.662 256.492 147.622C253.396 140.725 249.236 134.358 244.165 128.755C238.413 122.329 231.606 116.935 224.038 112.807C223.569 112.551 223.264 113.326 223.73 113.58L223.73 113.58Z" fill="white"/>
<path d="M253.279 142.089C255.487 140.635 257.107 138.443 257.85 135.904C258.593 133.364 258.41 130.644 257.334 128.227C257.115 127.739 256.347 128.057 256.566 128.546C257.572 130.794 257.742 133.329 257.046 135.692C256.349 138.055 254.832 140.091 252.768 141.433C252.32 141.725 252.834 142.379 253.279 142.089Z" fill="white"/>
<path d="M257.567 164.523C252.267 163.476 247.557 160.467 244.374 156.097C244.059 155.664 243.404 156.176 243.719 156.609C247.039 161.15 251.948 164.271 257.465 165.349C257.991 165.451 258.09 164.625 257.567 164.523Z" fill="white"/>
<path d="M237.953 123.331C237.216 124.072 236.306 124.617 235.306 124.919C234.306 125.221 233.247 125.269 232.224 125.06C231.7 124.951 231.601 125.778 232.122 125.886C233.254 126.112 234.423 126.057 235.529 125.726C236.634 125.395 237.642 124.798 238.464 123.987C238.548 123.917 238.602 123.818 238.615 123.709C238.629 123.601 238.6 123.491 238.536 123.403C238.468 123.317 238.368 123.26 238.259 123.247C238.15 123.233 238.04 123.264 237.953 123.331L237.953 123.331Z" fill="white"/>
<path d="M73.8862 213.047C77.9486 213.047 81.8447 214.663 84.7173 217.54C87.5898 220.416 89.2036 224.317 89.2036 228.385V228.385C89.2031 231.943 87.9674 235.39 85.7082 238.137C83.449 240.883 80.3067 242.757 76.8193 243.439V268.525H67.0422V213.047H73.8862Z" fill="#3F3D56"/>
<path d="M449.081 359.997V365.25C446.858 368.096 444.567 370.886 442.209 373.619C441.956 373.918 441.697 374.211 441.432 374.51C441.033 374.978 440.622 375.44 440.211 375.902V359.997H449.081Z" fill="#CACACA"/>
<path d="M423.056 349.041C421.095 349.043 419.215 349.824 417.829 351.213C416.442 352.601 415.662 354.483 415.66 356.447V367.104C415.662 369.068 416.442 370.95 417.829 372.338C419.215 373.727 421.095 374.507 423.056 374.51H441.432C441.697 374.211 441.956 373.918 442.209 373.619C444.567 370.886 446.858 368.096 449.081 365.25C449.228 365.064 449.374 364.878 449.515 364.692C450.787 363.063 452.036 361.406 453.263 359.738C454.22 358.431 455.171 357.112 456.1 355.782C456.105 355.776 456.111 355.776 456.111 355.77C457.664 353.561 459.178 351.318 460.653 349.041H423.056Z" fill="#3F3D56"/>
<path d="M470.373 257.818C469.244 257.428 468.056 257.23 466.861 257.232H463.839C462.738 257.233 461.643 257.398 460.591 257.722C458.372 258.421 456.433 259.809 455.056 261.686C453.678 263.563 452.934 265.831 452.931 268.16V357.067C452.931 357.399 452.948 357.726 452.976 358.047C453.025 358.618 453.121 359.183 453.263 359.738C454.22 358.431 455.171 357.112 456.1 355.782C456.105 355.776 456.111 355.776 456.111 355.77C457.665 353.561 459.179 351.318 460.653 349.041C461.447 347.818 462.235 346.584 463.006 345.344C468.578 336.392 473.513 327.059 477.775 317.412V268.16C477.772 265.879 477.057 263.655 475.73 261.801C474.403 259.946 472.53 258.554 470.373 257.818Z" fill="#3F3D56"/>
<path d="M97.8542 359.997V370.61C95.3215 367.578 92.8731 364.478 90.5092 361.311C90.1828 360.877 89.862 360.437 89.5411 359.997H97.8542Z" fill="#CACACA"/>
<path d="M115.01 349.041H81.9541C82.9953 350.647 84.0554 352.235 85.1341 353.803C86.5637 355.894 88.0327 357.959 89.5411 359.997C89.8619 360.437 90.1828 360.877 90.5092 361.31C92.8788 364.478 95.3271 367.578 97.8542 370.61C98.327 371.185 98.8054 371.754 99.2895 372.323C99.9086 373.056 100.537 373.785 101.175 374.51H115.01C116.97 374.507 118.849 373.726 120.234 372.338C121.62 370.949 122.399 369.067 122.4 367.104V356.447C122.399 354.484 121.62 352.602 120.234 351.213C118.849 349.825 116.97 349.044 115.01 349.041Z" fill="#3F3D56"/>
<path d="M79.2637 258.466C77.7054 257.657 75.9761 257.234 74.2207 257.232H71.2039C69.7764 257.23 68.3627 257.512 67.0446 258.061C65.0476 258.887 63.3401 260.287 62.1379 262.085C60.9357 263.882 60.2928 265.997 60.2905 268.16V306.355C65.9735 321.315 73.2359 335.625 81.9541 349.041C82.9954 350.647 84.0554 352.235 85.1341 353.803V268.16C85.1327 266.162 84.5848 264.202 83.5499 262.493C82.5151 260.784 81.0328 259.392 79.2637 258.466Z" fill="#3F3D56"/>
<path d="M202.223 423.532L212.138 421.254L208.082 381.875L193.449 385.238L202.223 423.532Z" fill="#9E616A"/>
<path d="M211.243 389.366C211.04 388.672 210.903 387.961 210.832 387.241C210.75 386.391 210.584 385.551 210.337 384.733C210.055 383.989 209.707 383.273 209.296 382.592C209.099 382.231 208.891 381.87 208.705 381.504C208.518 381.138 208.356 380.759 208.221 380.371C202.418 363.21 194.319 339.888 188.702 326.238C185.398 318.207 165.079 315.536 145.909 314.854C143.573 314.769 141.255 314.713 138.986 314.685C138.204 314.673 137.427 314.662 136.656 314.656C134.686 314.645 132.767 314.645 130.921 314.668C130.679 314.668 130.437 314.668 130.195 314.673C128.85 314.685 127.546 314.703 126.283 314.73C117.604 314.899 111.227 315.293 110.09 315.367L99.9649 308.992L97.9893 307.747L97.7811 308.992L96.1882 318.494L93.4697 334.709L100.286 336.625L104.71 337.865L130.921 345.226L136.493 346.792L136.527 346.804L145.909 346.787L171.563 346.742L172.802 350.027C172.357 350.719 172.064 351.497 171.943 352.311C171.822 353.124 171.876 353.954 172.1 354.745C172.324 355.536 172.714 356.271 173.243 356.899C173.773 357.528 174.43 358.036 175.171 358.391L176.134 358.848L187.857 389.913C187.893 392.723 188.77 395.457 190.373 397.764C190.57 398.051 190.784 398.333 191.009 398.609L191.268 398.919L195.777 407.75L198.461 407.13L209.887 404.51L209.943 404.397C209.949 404.38 210.095 404.07 210.309 403.529V403.512C211.204 401.275 213.185 395.16 211.243 389.366Z" fill="#2F2E41"/>
<path d="M239.098 426.152C238.671 424.259 237.875 422.469 236.754 420.885C235.634 419.302 234.211 417.956 232.569 416.925C230.927 415.894 229.098 415.198 227.186 414.878C225.274 414.558 223.318 414.62 221.431 415.06L213.512 411.481L211.294 413.043L202.097 419.501L201.337 419.676L198.872 420.24L202.277 435.102L239.211 426.619L239.098 426.152Z" fill="#2F2E41"/>
<path d="M190.109 403.236L186.76 430.424L186.647 431.314L186.152 435.366C184.221 434.577 182.297 433.76 180.394 432.92C178.616 432.137 176.85 431.329 175.098 430.497V403.242L190.109 403.236Z" fill="#9E616A"/>
<path d="M117.438 216.331C128.652 216.331 137.742 207.229 137.742 196C137.742 184.772 128.652 175.67 117.438 175.67C106.225 175.67 97.1351 184.772 97.1351 196C97.1351 207.229 106.225 216.331 117.438 216.331Z" fill="#9E616A"/>
<path d="M192.264 413.612C191.702 412.84 191.116 412.034 191.082 411.262C190.953 408.539 190.818 405.845 190.677 403.208C190.576 401.365 190.475 399.544 190.373 397.764C190.362 397.538 190.345 397.313 190.334 397.093C190.159 394.145 191.032 391.034 191.87 388.019C192.146 387.033 192.422 386.035 192.67 385.038C193.289 382.815 193.549 380.507 193.441 378.201C192 359.947 185.561 342.78 182.674 339.888C178.284 335.492 158.432 325.336 145.909 319.16C143.686 318.061 141.694 317.091 140.061 316.302C138.615 315.598 137.45 315.04 136.656 314.656C136.048 314.369 135.654 314.183 135.519 314.115L135.452 314.082L130.921 314.589L130.195 314.673L126.199 315.124L100.201 318.044L96.1882 318.494L90.5092 319.137L85.3817 319.712L85.1904 319.729L85.1566 319.92C85.1566 319.926 85.1453 319.965 85.1341 320.039C84.2523 325.61 84.2523 331.285 85.1341 336.856C85.7982 340.638 87.0533 344.482 89.2822 347.717C89.5861 348.156 89.9013 348.579 90.239 348.985C90.2504 349.006 90.2657 349.025 90.284 349.041C90.3572 349.131 90.4304 349.221 90.5092 349.312V349.317C93.0586 352.286 96.4807 354.371 100.286 355.274C100.848 355.427 101.423 355.551 102.014 355.652C108.312 356.768 115.426 357.794 122.399 358.695C125.287 359.067 128.152 359.417 130.921 359.744C136.465 360.397 141.643 360.95 145.909 361.389C151.887 361.998 156.085 362.376 157.02 362.455L167.46 411.228C166.641 412.615 166.314 414.24 166.533 415.837C166.751 417.434 167.503 418.91 168.665 420.025L169.52 420.854L170.511 425.498L173.775 429.871L174.186 430.424H188.589L188.668 430.328C188.719 430.26 193.784 423.745 193.441 415.984C193.407 415.184 192.85 414.423 192.264 413.612Z" fill="#2F2E41"/>
<path d="M191.871 250.151C190.78 249.852 189.638 249.797 188.523 249.988C187.409 250.18 186.35 250.613 185.421 251.259C184.492 251.905 183.716 252.746 183.147 253.725C182.578 254.704 182.231 255.795 182.129 256.923L165.259 262.202L165.963 273.25L189.681 265.459C191.585 265.505 193.438 264.851 194.892 263.619C196.345 262.388 197.297 260.666 197.567 258.779C197.837 256.892 197.406 254.971 196.356 253.381C195.307 251.791 193.711 250.641 191.871 250.151Z" fill="#9E616A"/>
<path d="M180.864 268.433L168.256 273.211L167.934 273.837C167.551 274.581 167.026 275.242 166.388 275.782C165.751 276.322 165.013 276.731 164.217 276.986C163.421 277.241 162.583 277.336 161.751 277.266C160.919 277.197 160.108 276.964 159.365 276.581L131.026 287.321C131.026 287.321 118.371 274.639 109.36 263.322L112.431 244.408C113.143 240.02 114.654 235.8 116.891 231.959C135.37 236.017 145.977 261.883 145.977 261.883L179.28 255.52L180.864 268.433Z" fill="#0059BC"/>
<path d="M114.553 215.244C109.47 216.619 103.867 214.791 99.8999 211.325C95.9332 207.858 93.4519 202.946 92.0221 197.872C90.975 194.156 90.4786 190.031 92.1309 186.542C93.7833 183.053 98.2305 180.699 101.661 182.462C99.5449 179.992 100.602 175.908 103.074 173.796C105.546 171.684 108.941 171.078 112.173 170.747C116.865 170.267 121.712 170.213 126.176 171.735C130.641 173.257 134.697 176.584 136.095 181.095C137.522 181.76 139.129 181.933 140.664 181.586C142.2 181.239 143.577 180.391 144.58 179.177C144.839 180.572 144.631 182.013 143.989 183.278C143.347 184.543 142.307 185.561 141.029 186.175L147.869 183.954C149.046 186.448 146.984 189.534 144.348 190.332C141.712 191.131 138.867 190.258 136.365 189.104C133.864 187.951 131.439 186.492 128.722 186.042C126.005 185.592 122.813 186.467 121.557 188.92C120.898 190.206 120.864 191.711 120.482 193.104C120.1 194.496 119.131 195.94 117.693 196.054C116.785 196.126 115.895 195.642 114.989 195.741C114.433 195.851 113.921 196.12 113.516 196.517C113.111 196.913 112.83 197.42 112.707 197.974C112.482 199.085 112.479 200.231 112.699 201.344L114.437 214.643L114.553 215.244Z" fill="#2F2E41"/>
<path d="M140.061 316.302L138.986 314.685L131.14 302.9L130.983 302.669L133.409 290.067L134.163 286.133L135.812 277.572L135.334 257.976L134.99 244.112L134.94 241.936L133.2 236.627C132.376 234.145 131.051 231.858 129.309 229.908C127.566 227.959 125.442 226.388 123.069 225.293L111.362 219.928C109.985 219.3 108.414 219.246 106.996 219.777C105.579 220.309 104.43 221.382 103.803 222.762C103.75 222.877 103.702 222.994 103.657 223.112C102.053 223.332 95.0907 224.504 89.1865 229.092C85.0503 232.243 82.1629 236.76 81.0367 241.84C81.0254 241.88 81.0198 241.919 81.0085 241.959C80.2262 245.459 79.6408 250.982 79.2637 258.466C79.0104 263.415 78.851 269.212 78.7853 275.859C78.6803 286.938 79.3026 298.012 80.6483 309.009C80.7777 310.058 80.9128 311.1 81.0535 312.148C81.1717 313.028 82.016 313.867 82.8321 314.673C83.5807 315.412 84.3518 316.178 84.4587 316.871C84.5544 317.48 84.166 318.117 83.7045 318.782C83.6482 318.866 83.5863 318.951 83.53 319.036C82.9559 319.853 82.3649 320.704 82.5169 321.6C82.8715 323.618 83.0798 325.669 83.2767 327.653C83.4967 330.384 83.8915 333.099 84.4587 335.78C84.6557 336.603 84.8808 337.431 85.1341 338.26C85.7251 340.204 86.4399 342.143 87.1378 344.036C87.74 345.682 88.3648 347.373 88.8938 349.041C88.9952 349.351 89.0908 349.655 89.1809 349.96L89.2259 350.118L89.3891 350.146H89.4004C89.6221 349.75 89.8863 349.38 90.1884 349.041C90.202 349.02 90.2191 349.001 90.239 348.985C90.3178 348.889 90.4079 348.788 90.5092 348.68C91.7418 347.333 94.4209 344.916 100.286 340.841C101.597 339.933 103.066 338.947 104.71 337.865C110.738 333.914 119.158 328.769 130.921 322.124C133.87 320.456 137.035 318.692 140.416 316.832L140.061 316.302Z" fill="#0059BC"/>
<path d="M203.195 440.281C201.828 438.906 200.202 437.817 198.412 437.075C196.622 436.333 194.703 435.953 192.765 435.958L186.647 431.314L185.843 430.7L180.394 432.92C182.297 433.76 184.222 434.577 186.152 435.366C192.191 437.835 198.358 440.04 204.653 441.983C204.21 441.38 203.723 440.811 203.195 440.281Z" fill="#2F2E41"/>
<path d="M339.081 423.149L331.419 419.479L341.944 387.408L353.253 392.824L339.081 423.149Z" fill="#FFB6B6"/>
<path d="M390.451 417.98C388.222 419.372 385.965 420.724 383.68 422.037V422.054L383.646 422.06L383.635 422.066L382.768 422.28L381.524 418.988L378.654 411.397L370.83 390.713L382.993 387.709L383.68 390.499L388.824 411.391L390.299 417.365L390.451 417.98Z" fill="#FFB6B6"/>
<path d="M359.43 283.754C360.523 285.531 362.266 286.81 364.288 287.318C366.31 287.826 368.45 287.523 370.251 286.472C370.613 286.253 370.957 286.004 371.278 285.727L395.503 299.648L394.451 285.358L371.608 274.329C370.365 273.079 368.742 272.277 366.995 272.049C365.248 271.822 363.475 272.181 361.954 273.07C360.213 274.117 358.958 275.814 358.466 277.788C357.974 279.761 358.285 281.849 359.331 283.593C359.363 283.647 359.396 283.701 359.43 283.754Z" fill="#FFB6B6"/>
<path d="M385.088 294.406L389.37 297.019L408.602 308.762C409.864 309.553 411.27 310.087 412.738 310.334C414.207 310.581 415.71 310.536 417.161 310.201C418.612 309.867 419.983 309.249 421.196 308.384C422.409 307.519 423.439 306.423 424.229 305.159L424.236 305.149C425.659 302.8 426.163 300.005 425.65 297.306L417.102 254.545C416.786 252.866 416.112 251.275 415.126 249.881C414.14 248.488 412.865 247.323 411.388 246.469C409.911 245.614 408.267 245.088 406.569 244.928C404.87 244.768 403.158 244.977 401.547 245.54C398.841 246.493 396.598 248.442 395.275 250.992C393.953 253.541 393.65 256.499 394.429 259.264L403.367 289.611L389.666 283.215L385.088 294.406Z" fill="#6C63FF"/>
<path d="M463.946 336.569C463.94 336.552 463.929 336.49 463.912 336.394L463.895 336.332C463.856 336.129 463.811 335.904 463.76 335.656C462.612 329.945 461.136 324.306 459.342 318.765C458.278 315.372 456.87 312.097 455.137 308.992C455.081 308.891 455.019 308.789 454.957 308.688L454.749 308.35L452.998 308.992L452.931 309.015L426.32 318.782L418.626 321.605L418.384 321.696L417.073 327.05L398.674 324.666L383.68 322.721L379.374 322.163C377.507 321.92 375.611 322.051 373.795 322.548C371.98 323.045 370.281 323.899 368.798 325.06C367.251 326.262 365.958 327.759 364.994 329.466C364.031 331.173 363.416 333.055 363.187 335.002C363.13 335.43 363.097 335.864 363.08 336.293L361.78 384.857V384.919L362.382 386.125L374.961 411.397H383.68L388.824 411.391H393.006L384.31 389.36L384.507 389.062C385.325 387.806 385.841 386.377 386.014 384.887C386.187 383.398 386.012 381.889 385.503 380.478L386.482 377.638C388.514 371.771 387.552 368.953 386.336 365.391C385.244 362.495 384.603 359.448 384.434 356.357L384.231 352.338C389.336 353.234 394.092 354.232 398.674 355.235C400.204 355.568 401.72 355.904 403.221 356.244C407.493 357.196 411.619 358.115 415.66 358.881C423.844 360.443 431.684 361.395 439.738 360.803C439.896 360.792 440.053 360.781 440.211 360.764C442.17 360.606 444.139 360.352 446.132 359.997C447.252 359.794 448.378 359.563 449.515 359.293C449.83 359.214 450.151 359.135 450.466 359.056C451.341 358.825 452.184 358.486 452.976 358.047C454.102 357.418 455.151 356.657 456.1 355.782C456.105 355.776 456.111 355.776 456.111 355.77C457.664 353.561 459.179 351.318 460.653 349.041C461.447 347.818 462.235 346.584 463.006 345.344C464.131 342.25 464.559 339.128 463.946 336.569Z" fill="#2F2E41"/>
<path d="M464.131 327.444C464.047 327.084 463.94 326.717 463.828 326.362C462.934 323.673 461.893 321.035 460.709 318.461C459.381 315.53 457.788 312.391 455.892 308.992C454.974 307.347 453.987 305.635 452.931 303.858C452.402 302.968 451.852 302.06 451.282 301.136C451.26 301.093 451.235 301.052 451.209 301.012L451.045 300.741L424.716 304.269L414.911 305.583L414.326 310.475L414.185 311.686C414.18 311.686 414.18 311.686 414.185 311.692L413.791 314.995V315L413.268 319.362L413.223 319.357L398.674 317.469L383.68 315.524L375.625 314.482C373.759 314.238 371.863 314.369 370.047 314.866C368.231 315.363 366.533 316.218 365.05 317.379C363.502 318.58 362.209 320.078 361.246 321.785C360.282 323.491 359.668 325.373 359.438 327.32C359.388 327.715 359.354 328.121 359.337 328.521L351.739 346.55C347.192 357.332 344.296 368.74 343.15 380.388L337.578 398.226L338.371 398.299L350.18 399.398L353.298 399.691L360.164 389.653C360.947 388.509 361.69 387.331 362.382 386.125C363.522 384.156 364.535 382.115 365.416 380.016L380.269 344.623C381.417 344.82 382.554 345.008 383.68 345.186C388.886 346.032 393.884 346.721 398.674 347.255C414.247 348.996 427.733 349.131 439.738 347.655C443.11 347.243 446.368 346.702 449.515 346.032C450.668 345.789 451.807 345.528 452.931 345.248C453.196 345.186 453.454 345.124 453.713 345.057C456.039 344.456 458.178 343.281 459.933 341.638C461.688 339.996 463.004 337.939 463.76 335.656C464.662 333.01 464.791 330.161 464.131 327.444Z" fill="#2F2E41"/>
<path d="M408.143 220.999C418.202 220.999 426.356 212.652 426.356 202.356C426.356 192.059 418.202 183.713 408.143 183.713C398.085 183.713 389.931 192.059 389.931 202.356C389.931 212.652 398.085 220.999 408.143 220.999Z" fill="#FFB6B6"/>
<path d="M451.389 301.761C451.361 301.553 451.327 301.344 451.282 301.136C450.849 298.848 449.723 296.605 448.637 294.429C447.601 292.355 446.616 290.394 446.211 288.444C445.811 286.522 446.048 284.595 446.278 282.735C446.526 280.717 446.785 278.632 446.205 276.608C443.265 266.276 439.227 256.288 434.161 246.817C432.882 242.652 430.431 238.945 427.102 236.141C423.773 233.336 419.706 231.552 415.39 231.003C415.894 230.06 416.104 228.988 415.992 227.925C415.922 227.239 415.716 226.573 415.386 225.966C415.057 225.359 414.61 224.824 414.073 224.392C413.557 223.975 412.963 223.665 412.326 223.479C411.69 223.294 411.023 223.236 410.364 223.31L401.899 224.262C400.542 224.433 399.307 225.133 398.462 226.21C397.618 227.288 397.233 228.656 397.39 230.016C397.438 230.435 397.532 230.847 397.672 231.245C389.815 241.266 385.779 250.396 385.408 259.03V259.036C385.363 260.033 385.368 261.032 385.424 262.028C385.602 265.252 386.302 268.425 387.496 271.423C388.905 274.888 390.792 278.137 393.102 281.078C393.574 281.675 394.064 282.261 394.571 282.836C395.043 283.4 395.572 283.991 396.158 284.611L397.638 286.933L399.017 289.103L406.39 306.141L410.144 306.017L410.668 309.765L410.792 310.638L413.223 319.357L413.403 320.011L416.729 318.427L436.575 308.992L451.411 301.936L451.389 301.761Z" fill="#6C63FF"/>
<path opacity="0.2" d="M387.719 271.333C389.411 275.483 391.79 279.318 394.755 282.677C395.263 283.284 395.799 283.881 396.361 284.478L399.242 289.005C409.862 281.034 418.467 249.648 418.467 249.648L406.484 247.314L387.719 271.333Z" fill="black"/>
<path d="M380.464 222.741C381.513 224.546 381.818 226.689 381.313 228.715C380.808 230.742 379.533 232.491 377.76 233.59C377.396 233.808 377.015 233.995 376.62 234.15L377.469 262.106L365.378 254.485L366.426 229.106C365.912 227.417 365.97 225.605 366.593 223.953C367.215 222.301 368.365 220.902 369.865 219.973C371.599 218.923 373.679 218.605 375.646 219.091C377.614 219.576 379.309 220.823 380.358 222.56C380.394 222.62 380.429 222.68 380.464 222.741Z" fill="#FFB6B6"/>
<path d="M378.531 251.554L365.236 253.447L365.807 281.017C365.84 282.983 366.375 284.909 367.361 286.61C368.347 288.312 369.751 289.733 371.439 290.738C373.502 291.953 375.904 292.464 378.282 292.194C380.66 291.924 382.886 290.886 384.624 289.239L416.014 259.006C418.222 256.908 419.544 254.043 419.707 250.999C419.87 247.955 418.862 244.964 416.891 242.642C414.959 240.352 412.198 238.924 409.215 238.673C406.232 238.422 403.271 239.367 400.984 241.302C400.895 241.378 400.807 241.455 400.72 241.533C400.409 241.811 400.114 242.105 399.836 242.415L379.109 266.29L378.531 251.554Z" fill="#6C63FF"/>
<path d="M390.788 417.275L390.299 417.365L383.68 418.588L381.524 418.988L378.13 419.614L379.334 424.478C380.781 423.694 382.211 422.888 383.635 422.066L383.646 422.06L383.68 422.054V422.037C385.965 420.73 388.222 419.377 390.451 417.98C390.608 417.884 390.766 417.788 390.923 417.681L390.788 417.275Z" fill="#2F2E41"/>
<path d="M341.529 417.912L333.238 413.933L331.938 413.307L329.861 418.414L315.363 421.609C314.646 421.766 313.998 422.149 313.514 422.702C313.03 423.254 312.734 423.947 312.672 424.679C312.609 425.411 312.781 426.144 313.164 426.771C313.547 427.398 314.12 427.886 314.8 428.164L328.966 433.952L333.463 429.9L332.36 435.338L337.696 437.519L343.544 418.881L341.529 417.912Z" fill="#2F2E41"/>
<path d="M456.878 194.27C453.782 190.655 452.31 185.859 449.836 181.754C447.361 177.649 443.054 173.975 438.504 174.93C435.368 175.589 432.944 178.36 431.717 181.45C430.49 184.54 430.26 187.947 430.045 191.285C430.121 184.425 425.608 177.775 419.391 175.586C413.174 173.398 405.734 175.839 401.828 181.35C400.123 179.768 397.897 178.867 395.574 178.818C393.25 178.769 390.989 179.576 389.219 181.085C385.725 184.212 384.952 190.164 387.521 194.153C390.091 198.142 395.656 199.628 399.74 197.416L401.184 198.746C400.371 201.592 401.947 204.954 404.597 206.025C406.745 206.894 409.778 206.749 410.582 209.007C411.143 210.584 410.093 212.268 408.976 213.48C407.86 214.692 406.534 215.944 406.4 217.621C406.197 220.152 408.809 221.925 411.183 222.459C416.908 223.746 423.26 221.092 426.559 216.033C426.623 215.935 426.692 215.837 426.767 215.739C428.618 213.369 429.967 210.645 430.732 207.735C431.496 204.825 431.66 201.789 431.214 198.813C431.028 197.644 431.215 196.774 432.02 196.497C435.5 195.3 445.249 197.812 448.2 200.082C451.15 202.353 453.513 205.357 456.355 207.774C459.197 210.191 462.819 212.055 466.428 211.397C469.318 210.87 471.777 208.769 473.431 206.235C475.084 203.701 476.036 200.746 476.889 197.811C470.498 201.508 461.751 199.96 456.878 194.27Z" fill="#2F2E41"/>
<path d="M398.671 305.4V412.595C396.634 413.998 394.57 415.364 392.48 416.692V312.507C392.48 309.486 391.467 307.034 390.223 307.029H296.517C295.267 307.034 294.26 309.486 294.254 312.507V450.846C293.004 450.97 291.755 451.088 290.505 451.19C289.988 451.235 289.464 451.274 288.946 451.314C288.648 450.761 288.355 450.203 288.063 449.64V305.4C288.063 304.566 288.096 303.726 288.153 302.898C288.659 295.864 291.175 290.724 294.119 290.713H392.615C392.972 290.715 393.324 290.79 393.651 290.933C396.116 291.981 398.064 296.58 398.553 302.526C398.632 303.473 398.677 304.436 398.671 305.4Z" fill="#E4E4E4"/>
<path d="M248.321 305.4V450.418C248.236 450.553 248.152 450.682 248.068 450.818C245.951 450.604 243.844 450.357 241.747 450.079V312.507C241.747 309.486 240.672 307.034 239.349 307.029H139.89C138.568 307.034 137.493 309.486 137.493 312.507V408.013C135.269 406.373 133.078 404.692 130.919 402.969V305.4C130.919 304.566 130.952 303.726 131.014 302.898C131.549 295.864 134.223 290.724 137.352 290.713H241.888C242.264 290.714 242.637 290.788 242.985 290.933C245.602 291.981 247.674 296.58 248.197 302.526C248.281 303.473 248.321 304.436 248.321 305.4Z" fill="#E4E4E4"/>
<path d="M214.989 257.207L221.507 285.925L225.672 290.493H228.677L216.293 238.279L215.68 247.149V247.156L214.989 257.207Z" fill="#3F3D56"/>
<path d="M236.695 291.961C236.676 291.916 236.651 291.875 236.622 291.837C236.562 291.701 236.476 291.578 236.368 291.476L235.609 290.715L231.612 286.708C231.319 286.421 230.925 286.259 230.515 286.257H230.498L227.678 286.274L225.252 286.291L221.864 286.313L198.788 286.46L183.619 286.556C183.208 286.561 182.816 286.727 182.527 287.019C182.237 287.311 182.074 287.706 182.072 288.117C182.074 288.345 182.124 288.569 182.218 288.776L182.511 289.402L183.124 290.715L183.923 292.434L184.317 293.279C184.443 293.549 184.642 293.776 184.893 293.936C185.143 294.096 185.433 294.181 185.73 294.181H235.265C235.526 294.176 235.781 294.107 236.009 293.98C236.237 293.853 236.43 293.672 236.571 293.452C236.712 293.233 236.797 292.982 236.819 292.722C236.84 292.462 236.798 292.2 236.695 291.961H236.695Z" fill="#3F3D56"/>
<path opacity="0.17" d="M183.924 292.433L184.315 293.281C184.442 293.549 184.643 293.776 184.893 293.936C185.143 294.095 185.433 294.18 185.73 294.182H235.267C235.527 294.177 235.783 294.108 236.01 293.981C236.238 293.854 236.431 293.673 236.572 293.454C236.713 293.234 236.798 292.984 236.819 292.724C236.841 292.464 236.798 292.202 236.694 291.963C236.677 291.918 236.653 291.876 236.623 291.839L183.924 292.433Z" fill="black"/>
<path opacity="0.17" d="M215.68 247.149V247.156L226.285 290.493H228.677L216.293 238.279L215.68 247.149Z" fill="black"/>
<path d="M232.316 125.87L230.762 125.662C230.336 125.606 229.905 125.722 229.564 125.983L228.635 126.699L218.296 139.65C217.954 139.914 217.731 140.304 217.677 140.732L217.097 145.14L202.666 255.09C202.614 255.498 202.717 255.91 202.953 256.246L209.752 275.013L209.954 275.307L210.393 275.932C210.62 276.25 210.95 276.477 211.328 276.575L212.313 276.823C212.536 276.879 212.77 276.887 212.997 276.846C213.224 276.805 213.439 276.716 213.63 276.586C213.821 276.457 213.982 276.289 214.102 276.093C214.223 275.896 214.3 275.676 214.328 275.447L216.089 262.045V262.04L217.215 253.439L218.166 246.186V246.18L233.723 127.696C233.779 127.269 233.663 126.836 233.401 126.494C233.139 126.151 232.751 125.928 232.324 125.871L232.316 125.87Z" fill="#3F3D56"/>
<path opacity="0.17" d="M228.633 126.699L209.751 275.016L209.956 275.306L210.393 275.93C210.619 276.248 210.95 276.476 211.328 276.573L212.314 276.821C212.538 276.877 212.77 276.884 212.996 276.844C213.223 276.803 213.438 276.715 213.628 276.585C213.818 276.456 213.979 276.287 214.1 276.091C214.221 275.895 214.299 275.676 214.329 275.447L233.721 127.698C233.778 127.269 233.661 126.835 233.398 126.492C233.135 126.149 232.747 125.924 232.318 125.868L230.761 125.663C230.549 125.634 230.334 125.648 230.129 125.703C229.923 125.759 229.73 125.855 229.561 125.985L228.633 126.699Z" fill="black"/>
<path d="M228.076 130.941L218.056 145.262L206.146 236.001L212.603 248.828L228.076 130.941Z" fill="#0D75E8"/>
<path d="M325.683 257.207L319.164 285.925L314.999 290.493H311.995L324.379 238.279L324.991 247.149V247.156L325.683 257.207Z" fill="#3F3D56"/>
<path d="M357.052 286.556L318.813 286.313L315.419 286.291L312.999 286.274L310.179 286.257H310.156C309.747 286.258 309.355 286.42 309.064 286.708L304.303 291.476C304.197 291.58 304.112 291.702 304.049 291.837C304.02 291.875 303.995 291.916 303.976 291.961C303.873 292.2 303.831 292.462 303.852 292.722C303.874 292.982 303.959 293.233 304.1 293.452C304.242 293.672 304.435 293.853 304.662 293.98C304.89 294.107 305.145 294.176 305.406 294.181H354.941C355.238 294.18 355.529 294.095 355.78 293.935C356.031 293.776 356.232 293.548 356.36 293.279L356.748 292.434L357.547 290.715L358.453 288.776C358.55 288.57 358.6 288.345 358.6 288.117C358.597 287.705 358.434 287.311 358.145 287.019C357.855 286.727 357.463 286.561 357.052 286.556Z" fill="#3F3D56"/>
<path opacity="0.17" d="M356.748 292.433L356.357 293.281C356.23 293.549 356.029 293.776 355.779 293.936C355.529 294.095 355.239 294.18 354.942 294.182H305.405C305.145 294.177 304.889 294.108 304.662 293.981C304.434 293.854 304.241 293.673 304.1 293.454C303.959 293.234 303.874 292.984 303.853 292.724C303.831 292.464 303.874 292.202 303.978 291.963C303.995 291.918 304.019 291.876 304.049 291.839L356.748 292.433Z" fill="black"/>
<path opacity="0.17" d="M324.992 247.149V247.156L314.387 290.493H311.995L324.379 238.279L324.992 247.149Z" fill="black"/>
<path d="M338.005 255.09L322.995 140.732C322.94 140.304 322.717 139.914 322.375 139.65L312.042 126.699L311.113 125.983C310.769 125.722 310.337 125.607 309.909 125.662L308.355 125.87C307.927 125.926 307.538 126.149 307.274 126.492C307.01 126.834 306.893 127.267 306.948 127.696L322.505 246.186V246.191L323.456 253.439L324.587 262.045V262.057L326.343 275.447C326.371 275.677 326.449 275.897 326.57 276.094C326.692 276.291 326.854 276.458 327.047 276.586C327.236 276.716 327.451 276.805 327.677 276.846C327.903 276.887 328.136 276.879 328.358 276.823L329.343 276.575C329.721 276.477 330.052 276.25 330.278 275.932L330.717 275.307L330.919 275.013L337.718 256.246C337.957 255.911 338.06 255.498 338.005 255.09Z" fill="#3F3D56"/>
<path opacity="0.17" d="M312.039 126.699L330.921 275.016L330.716 275.306L330.278 275.93C330.053 276.248 329.722 276.476 329.344 276.573L328.358 276.821C328.134 276.877 327.902 276.884 327.675 276.844C327.449 276.803 327.234 276.715 327.044 276.585C326.853 276.456 326.693 276.287 326.572 276.091C326.451 275.895 326.373 275.676 326.343 275.447L306.95 127.698C306.894 127.269 307.011 126.835 307.274 126.492C307.537 126.149 307.925 125.924 308.354 125.868L309.911 125.663C310.122 125.634 310.337 125.648 310.543 125.703C310.749 125.759 310.942 125.855 311.111 125.985L312.039 126.699Z" fill="black"/>
<path d="M312.596 130.941L322.616 145.262L334.525 236.001L328.068 248.828L312.596 130.941Z" fill="#0D75E8"/>
<path d="M126.356 313.884C126.358 314.168 126.333 314.451 126.283 314.73C126.261 314.865 126.232 314.995 126.199 315.124C125.925 316.172 125.311 317.1 124.455 317.761C123.598 318.423 122.547 318.782 121.465 318.782H100.286V369.364C100.287 370.433 99.9366 371.473 99.2895 372.323C98.8054 371.754 98.327 371.185 97.8542 370.61C95.3215 367.578 92.8731 364.478 90.5092 361.311V318.782H81.0536C79.7927 318.781 78.581 318.293 77.6714 317.418C76.7619 316.544 76.2249 315.352 76.1725 314.09C76.1202 312.829 76.5567 311.596 77.3907 310.649C78.2248 309.702 79.3919 309.115 80.6483 309.009C80.7834 308.998 80.9185 308.992 81.0536 308.992H121.465C122.762 308.992 124.005 309.507 124.922 310.424C125.839 311.342 126.355 312.586 126.356 313.884Z" fill="#3F3D56"/>
<path d="M463.85 313.884C463.85 314.876 463.55 315.844 462.99 316.661C462.429 317.478 461.634 318.106 460.709 318.461C460.271 318.629 459.81 318.731 459.342 318.765C459.218 318.776 459.088 318.782 458.965 318.782H449.515V364.692C449.374 364.878 449.228 365.064 449.081 365.25C446.858 368.096 444.567 370.886 442.209 373.619C441.456 373.195 440.83 372.576 440.396 371.828C439.961 371.08 439.734 370.229 439.738 369.364V318.782H418.553C417.928 318.784 417.308 318.663 416.729 318.427C416 318.135 415.352 317.671 414.841 317.074C414.329 316.478 413.969 315.766 413.791 315V314.995C413.529 313.882 413.668 312.712 414.185 311.692C414.18 311.686 414.18 311.686 414.185 311.686C414.409 311.238 414.701 310.827 415.052 310.469C415.508 310.001 416.052 309.63 416.654 309.376C417.255 309.123 417.901 308.992 418.553 308.992H458.965C460.26 308.992 461.503 309.507 462.419 310.424C463.335 311.341 463.85 312.585 463.85 313.883L463.85 313.884Z" fill="#3F3D56"/>
<path d="M463.527 219.574C461.515 219.574 459.523 219.971 457.665 220.742C455.807 221.512 454.118 222.642 452.696 224.066C451.273 225.491 450.145 227.182 449.375 229.042C448.605 230.903 448.209 232.898 448.209 234.912V234.912C448.21 238.47 449.445 241.917 451.705 244.663C453.964 247.41 457.106 249.284 460.594 249.966V275.052H470.371V219.574H463.527Z" fill="#3F3D56"/>
<path d="M196.095 275.581C195.12 275.007 194.031 274.655 192.905 274.549C191.78 274.443 190.644 274.585 189.58 274.966C188.515 275.346 187.546 275.956 186.742 276.752C185.938 277.548 185.318 278.511 184.926 279.573L167.265 280.263L164.885 288.5L189.993 289.787C191.818 290.329 193.778 290.181 195.502 289.372C197.226 288.563 198.593 287.149 199.345 285.398C200.098 283.647 200.182 281.68 199.583 279.871C198.984 278.061 197.743 276.535 196.095 275.581H196.095Z" fill="#9E616A"/>
<path d="M181.588 290.675L163.447 290.449L161.15 290.418L124.241 289.952C124.241 289.952 114.218 280.377 105.49 270.519L106.713 261.659C107.907 252.964 112.214 244.999 118.834 239.247C131.334 247.611 138.583 264.166 138.583 264.166L150.738 269.612C159.291 269.995 167.626 272.439 175.035 276.737L179.032 279.056L181.588 290.675Z" fill="#0059BC"/>
<path d="M238.586 449.642H304.021C299.558 450.296 295.053 450.813 290.508 451.192H252.1C247.552 450.814 243.047 450.298 238.586 449.642Z" fill="#CCCCCC"/>
<path d="M251.742 416.655C253.008 405.211 259.93 393.858 270.762 389.994C266.628 401.812 266.801 414.713 271.251 426.416C272.984 430.923 275.38 435.755 273.868 440.34C272.927 443.194 270.562 445.399 267.904 446.794C265.246 448.188 262.284 448.876 259.36 449.55L258.789 450.035C253.992 439.57 250.475 428.1 251.742 416.655Z" fill="#CCCCCC"/>
<path d="M270.873 390.209C264.631 397.404 260.811 406.386 259.957 415.878C259.737 417.918 259.839 419.981 260.26 421.989C260.734 423.932 261.718 425.713 263.111 427.146C264.383 428.509 265.842 429.755 266.762 431.403C267.22 432.254 267.493 433.192 267.563 434.156C267.634 435.12 267.5 436.088 267.171 436.997C266.409 439.282 264.873 441.157 263.307 442.938C261.568 444.916 259.731 446.943 259.016 449.543C258.929 449.859 258.446 449.705 258.532 449.391C259.777 444.866 264.112 442.247 266.142 438.16C267.089 436.252 267.468 434.048 266.53 432.06C265.709 430.322 264.206 429.036 262.906 427.668C261.526 426.289 260.505 424.594 259.931 422.729C259.409 420.749 259.227 418.694 259.394 416.652C259.696 412.051 260.718 407.525 262.424 403.241C264.343 398.341 267.086 393.806 270.533 389.833C270.746 389.587 271.085 389.965 270.873 390.209H270.873Z" fill="white"/>
<path d="M260.052 412.805C258.481 412.446 257.089 411.538 256.124 410.246C255.16 408.953 254.685 407.359 254.786 405.748C254.79 405.683 254.82 405.622 254.869 405.578C254.918 405.534 254.982 405.511 255.048 405.513C255.114 405.515 255.176 405.543 255.221 405.591C255.267 405.638 255.292 405.701 255.292 405.767C255.196 407.267 255.638 408.751 256.539 409.953C257.44 411.155 258.74 411.995 260.205 412.321C260.523 412.393 260.369 412.876 260.052 412.805H260.052Z" fill="white"/>
<path d="M262.375 426.54C265.181 424.811 267.233 422.087 268.122 418.911C268.21 418.596 268.693 418.749 268.605 419.063C267.674 422.367 265.533 425.198 262.609 426.991C262.331 427.161 262.098 426.71 262.375 426.54Z" fill="white"/>
<path d="M264.82 398.816C265.399 399.082 266.035 399.2 266.67 399.159C267.306 399.118 267.922 398.92 268.462 398.582C268.738 398.408 268.97 398.859 268.696 399.032C268.097 399.402 267.417 399.621 266.715 399.667C266.013 399.714 265.31 399.588 264.667 399.3C264.605 399.278 264.553 399.232 264.522 399.173C264.491 399.114 264.484 399.046 264.502 398.981C264.523 398.917 264.567 398.864 264.627 398.833C264.686 398.802 264.756 398.796 264.82 398.816L264.82 398.816Z" fill="white"/>
<path d="M304.205 409.958C304.036 410.072 303.866 410.185 303.696 410.303C301.425 411.843 299.282 413.565 297.289 415.452C297.132 415.596 296.976 415.744 296.824 415.891C292.07 420.489 288.211 425.931 285.441 431.94C284.341 434.332 283.424 436.805 282.699 439.336C281.698 442.832 280.889 446.702 278.853 449.578C278.644 449.881 278.416 450.17 278.172 450.444L259.425 450.695C259.382 450.674 259.339 450.658 259.296 450.637L258.548 450.681C258.576 450.548 258.608 450.41 258.637 450.277C258.653 450.2 258.673 450.123 258.689 450.045C258.701 449.994 258.713 449.942 258.721 449.895C258.725 449.878 258.729 449.861 258.733 449.848C258.741 449.8 258.754 449.757 258.762 449.714C258.94 448.945 259.123 448.176 259.313 447.407C259.313 447.402 259.313 447.402 259.317 447.398C260.704 441.522 262.782 435.832 265.507 430.446C265.591 430.287 265.674 430.123 265.766 429.963C267.03 427.578 268.486 425.301 270.12 423.154C271.018 421.981 271.976 420.854 272.988 419.779C275.609 417.004 278.65 414.659 281.999 412.83C288.675 409.185 296.441 407.719 303.656 409.794C303.84 409.847 304.021 409.901 304.205 409.958Z" fill="#CCCCCC"/>
<path d="M304.166 410.197C294.856 412.178 286.406 417.047 280.016 424.111C278.614 425.608 277.455 427.316 276.584 429.173C275.794 431.01 275.509 433.026 275.76 435.01C275.956 436.865 276.372 438.739 276.115 440.61C275.969 441.565 275.623 442.479 275.1 443.291C274.576 444.103 273.887 444.796 273.078 445.323C271.096 446.688 268.742 447.259 266.421 447.737C263.843 448.268 261.158 448.779 259.023 450.424C258.764 450.623 258.47 450.209 258.729 450.01C262.443 447.148 267.479 447.671 271.558 445.631C273.461 444.679 275.089 443.147 275.534 440.994C275.924 439.112 275.497 437.179 275.282 435.302C275.01 433.37 275.213 431.401 275.876 429.566C276.65 427.67 277.741 425.919 279.101 424.39C282.109 420.898 285.646 417.901 289.584 415.509C294.063 412.754 298.979 410.786 304.121 409.691C304.439 409.624 304.483 410.13 304.166 410.197H304.166Z" fill="white"/>
<path d="M281.94 421.715C280.902 420.481 280.336 418.917 280.343 417.304C280.35 415.69 280.929 414.131 281.978 412.906C282.191 412.659 282.585 412.978 282.371 413.226C281.393 414.365 280.853 415.817 280.85 417.32C280.846 418.823 281.379 420.277 282.353 421.421C282.564 421.67 282.15 421.963 281.94 421.715Z" fill="white"/>
<path d="M275.536 434.082C278.816 434.394 282.093 433.455 284.712 431.455C284.972 431.257 285.266 431.67 285.006 431.868C282.276 433.945 278.865 434.914 275.453 434.583C275.127 434.551 275.213 434.051 275.536 434.082V434.082Z" fill="white"/>
<path d="M294.158 413.42C294.46 413.981 294.897 414.459 295.429 414.809C295.961 415.16 296.572 415.373 297.207 415.428C297.532 415.456 297.446 415.956 297.123 415.929C296.422 415.864 295.748 415.628 295.159 415.242C294.57 414.856 294.085 414.332 293.745 413.714C293.708 413.659 293.694 413.591 293.705 413.526C293.716 413.46 293.752 413.401 293.805 413.36C293.859 413.322 293.927 413.306 293.994 413.317C294.06 413.328 294.119 413.365 294.158 413.42Z" fill="white"/>
<path d="M313.929 425.902C317.222 425.902 319.891 423.23 319.891 419.932C319.891 416.635 317.222 413.962 313.929 413.962C310.636 413.962 307.967 416.635 307.967 419.932C307.967 423.23 310.636 425.902 313.929 425.902Z" fill="#CCCCCC"/>
<path d="M333.394 443.338C333.029 443.445 332.657 443.552 332.286 443.653C328.914 444.6 325.518 445.466 322.098 446.251C321.705 445.455 321.493 444.581 321.48 443.693C321.466 442.805 321.651 441.925 322.021 441.118C322.39 440.31 322.935 439.595 323.615 439.025C324.295 438.455 325.094 438.045 325.953 437.823C326.812 437.602 327.709 437.575 328.58 437.745C329.451 437.915 330.272 438.277 330.986 438.805C331.699 439.334 332.285 440.015 332.702 440.799C333.118 441.583 333.355 442.45 333.394 443.338Z" fill="#CCCCCC"/>
<path d="M367.457 430.522C367.001 430.736 366.545 430.95 366.09 431.158C365.594 431.395 365.093 431.621 364.598 431.846C364.041 432.1 363.489 432.348 362.932 432.596C360.838 433.531 358.722 434.433 356.6 435.301C356.572 435.256 356.544 435.205 356.516 435.154C355.772 433.759 355.612 432.126 356.07 430.613C356.527 429.1 357.566 427.83 358.957 427.082C360.348 426.335 361.979 426.17 363.491 426.625C365.003 427.079 366.274 428.116 367.024 429.507C367.196 429.833 367.341 430.172 367.457 430.522Z" fill="#CCCCCC"/>
<path d="M334.958 411.249C338.251 411.249 340.92 408.576 340.92 405.278C340.92 401.981 338.251 399.308 334.958 399.308C331.665 399.308 328.996 401.981 328.996 405.278C328.996 408.576 331.665 411.249 334.958 411.249Z" fill="#CCCCCC"/>
<path d="M280.267 78.1714C245.197 87.4086 206.339 93.0276 166.828 94.5662C161.037 94.8821 155.233 94.8425 149.447 94.4479C136.733 93.3771 125.842 89.3756 113.713 87.1888C107.882 86.1405 101.387 85.3741 95.5162 84.2412C96.8727 82.5561 98.2535 80.8916 99.6587 79.2478C112.317 80.3186 125.172 83.8242 137.982 85.453C159.758 88.2258 184.157 85.1317 200.665 77.5007C208.675 73.7979 214.809 69.1765 222.791 65.4568C223.876 64.8987 225.052 64.5381 226.263 64.3916C228.79 64.1605 231.008 65.1806 232.815 66.0936C246.205 72.8623 265.645 78.363 283.689 75.3365C285.035 76.3904 282.479 77.5908 280.267 78.1714Z" fill="white"/>
<path d="M360.117 101.992C360.282 101.961 360.447 101.938 360.612 101.909C359.919 101.479 359.266 100.987 358.662 100.438L360.117 101.992Z" fill="white"/>
<path d="M468.137 115.346C460.6 115.949 453.025 116.398 445.409 116.693C439.619 117.006 433.815 116.966 428.029 116.574C415.314 115.498 404.424 111.502 392.294 109.315C381.178 107.315 367.67 106.351 360.612 101.91C378.854 98.748 397.754 105.184 416.564 107.58C431.779 109.453 447.203 108.69 462.159 105.325C464.242 108.605 466.234 111.945 468.137 115.346Z" fill="white"/>
<path d="M298.486 199.887C280.83 139.206 270.438 76.6396 270.438 13.4356V8.85492H264.572V13.4355C264.572 76.6396 254.18 139.206 236.525 199.887C235.672 202.825 235.239 205.869 235.241 208.928V208.928C235.241 210.085 235.469 211.231 235.911 212.3C236.353 213.369 237.001 214.34 237.818 215.159C238.635 215.977 239.605 216.626 240.673 217.069C241.741 217.512 242.885 217.739 244.04 217.739H255.773C255.773 219.282 256.076 220.81 256.666 222.235C257.256 223.661 258.12 224.956 259.209 226.047C260.299 227.138 261.592 228.003 263.015 228.593C264.439 229.184 265.965 229.488 267.505 229.488C269.046 229.488 270.572 229.184 271.995 228.593C273.419 228.003 274.712 227.138 275.801 226.047C276.891 224.956 277.755 223.661 278.345 222.235C278.934 220.81 279.238 219.282 279.238 217.739H288.368V243.061C287.08 243.098 285.855 243.628 284.945 244.541C284.035 245.454 283.509 246.682 283.474 247.971C283.439 249.261 283.899 250.515 284.758 251.476C285.618 252.437 286.812 253.032 288.096 253.139C289.38 253.246 290.656 252.857 291.662 252.052C292.669 251.247 293.329 250.086 293.508 248.808C293.687 247.531 293.37 246.233 292.624 245.182C291.877 244.13 290.757 243.405 289.493 243.154V217.739H290.97C293.304 217.739 295.542 216.811 297.192 215.159C298.843 213.506 299.77 211.265 299.77 208.928V208.928C299.771 205.869 299.339 202.825 298.486 199.887Z" fill="white"/>
</g>
<defs>
<clipPath id="clip0_120_2131">
<rect width="497" height="452" fill="white"/>
</clipPath>
</defs>
</svg>
