<svg width="23" height="29" viewBox="0 0 23 29" fill="none" xmlns="http://www.w3.org/2000/svg">
<path d="M18.1873 7.63965L16.2609 12.7391" stroke="#A80532" stroke-linecap="round" stroke-linejoin="round"/>
<path d="M17.4348 15.0869H18.6087C19.5427 15.0869 20.4385 15.458 21.0989 16.1184C21.7594 16.7789 22.1304 17.6746 22.1304 18.6087C22.1304 19.5427 21.7594 20.4384 21.0989 21.0989C20.4385 21.7594 19.5427 22.1304 18.6087 22.1304H17.4348" stroke="#A80532" stroke-linecap="round" stroke-linejoin="round"/>
<path d="M17.4348 25.6522C17.4348 26.2749 17.1874 26.872 16.7471 27.3123C16.3068 27.7526 15.7096 28 15.087 28H4.52175C3.89906 28 3.30188 27.7526 2.86158 27.3123C2.42128 26.872 2.17392 26.2749 2.17392 25.6522V13.3261C2.17392 13.1704 2.23576 13.0211 2.34584 12.9111C2.45591 12.801 2.60521 12.7391 2.76088 12.7391H16.8478C17.0035 12.7391 17.1528 12.801 17.2629 12.9111C17.373 13.0211 17.4348 13.1704 17.4348 13.3261V25.6522Z" stroke="#A80532" stroke-linecap="round" stroke-linejoin="round"/>
<path d="M17.2951 1.07507C18.5077 2.92281 16.7081 3.9359 16.2937 4.92786C16.1836 5.15824 16.1232 5.40926 16.1165 5.66455C16.1098 5.91984 16.1571 6.17367 16.2551 6.40949C16.3531 6.64531 16.4997 6.85782 16.6854 7.03316C16.8711 7.2085 17.0916 7.34274 17.3327 7.42712C20.737 8.86516 21.7513 2.15273 17.2951 1.07507Z" stroke="#A80532" stroke-linecap="round" stroke-linejoin="round"/>
<path d="M13.913 12.7391L16.9758 7.23694" stroke="#A80532" stroke-linecap="round" stroke-linejoin="round"/>
<path d="M6.86957 12.7392H3.34783L1.58696 9.21742L1 5.69568L3.93478 7.45655L6.86957 12.7392Z" stroke="#A80532" stroke-linecap="round" stroke-linejoin="round"/>
<path d="M1.58696 9.21741L3.93479 7.45654" stroke="#A80532" stroke-linecap="round" stroke-linejoin="round"/>
<path d="M12.7391 1.58696C12.7391 1.43129 12.6773 1.28199 12.5672 1.17192C12.4571 1.06184 12.3078 1 12.1522 1H8.63043C8.47476 1 8.32546 1.06184 8.21539 1.17192C8.10531 1.28199 8.04347 1.43129 8.04347 1.58696V12.7391H12.7391V1.58696Z" stroke="#A80532" stroke-linecap="round" stroke-linejoin="round"/>
<path d="M12.7391 3.34778H10.3913" stroke="#A80532" stroke-linecap="round" stroke-linejoin="round"/>
<path d="M12.7391 5.69568H11.5652" stroke="#A80532" stroke-linecap="round" stroke-linejoin="round"/>
<path d="M12.7391 8.04346H10.3913" stroke="#A80532" stroke-linecap="round" stroke-linejoin="round"/>
<path d="M12.7391 10.3914H11.5652" stroke="#A80532" stroke-linecap="round" stroke-linejoin="round"/>
</svg>
