<svg width="598" height="379" viewBox="0 0 598 379" fill="none" xmlns="http://www.w3.org/2000/svg">
<path d="M256.917 337.397C239.075 319.969 224.983 299.143 214.739 274.871C204.447 250.647 199.349 224.142 199.349 195.403C199.349 167.635 204.495 141.955 214.739 118.411C224.839 95.2549 238.642 75.2544 256.1 58.5064C252.878 53.8461 249.319 49.574 245.231 45.9817C225.416 28.3113 191.221 13.0682 144.955 13.0682C101.189 13.0682 69.6399 25.6414 47.9495 37.8262C26.2592 50.011 15.438 66.5648 15.438 87.4877C15.438 100.983 18.5161 111.469 24.7202 118.848C30.9243 126.275 39.7735 129.965 51.3642 129.965C63.3395 129.965 72.7178 126.906 79.5472 120.838C86.3765 114.721 91.6187 106.226 95.322 95.3519C100.66 79.6719 106.48 68.4579 112.684 61.7102C118.888 54.9625 127.978 51.5643 139.953 51.5643C157.7 51.5643 170.829 57.3412 179.294 68.8949C187.758 80.4486 191.991 98.8471 191.991 124.139V151.567L104.652 191.422C67.0909 207.539 40.2545 223.996 24.143 240.793C8.03156 257.589 -6.10352e-05 275.551 -6.10352e-05 294.726C-6.10352e-05 319.581 7.83924 339.727 23.5178 355.164C39.1964 370.65 60.0692 378.369 86.0879 378.369C110.423 378.369 132.114 372.495 151.111 360.699C170.108 348.951 185.594 331.717 197.57 309.047H197.666C197.666 331.28 205.649 348.465 215.557 360.699C225.464 372.883 239.892 379 258.937 379C274.231 379 287.938 375.844 300.106 369.534C300.25 369.437 300.394 369.339 300.587 369.291C284.475 360.65 269.903 350.067 256.917 337.397ZM191.943 248.22C191.943 257.783 190.163 266.861 186.7 275.356C183.189 283.852 178.332 291.134 172.128 297.25C165.924 303.367 158.517 308.27 149.812 311.959C141.155 315.649 131.825 317.493 121.918 317.493C112.011 317.493 103.738 313.804 97.1496 306.377C90.5607 298.949 87.2422 288.949 87.2422 276.327C87.2422 261.084 95.9953 246.375 113.55 232.2C131.104 218.025 157.219 202.685 191.894 186.131V248.22H191.943Z" fill="#F8F8F8"/>
<path d="M592.489 137.202C587.204 116.207 577.739 96.4603 565.2 78.5876C552.564 60.763 536.325 45.5808 518.212 33.3774C500.051 21.174 479.92 11.9014 458.492 6.42426C437.112 0.899097 414.963 -0.974754 392.959 0.466593C348.854 3.58951 305.661 21.8946 273.135 52.5953C256.944 68.0658 243.779 86.7553 234.411 106.838C224.898 126.969 219.084 149.118 217.691 171.17C216.298 193.223 218.075 215.179 223.601 236.703C229.078 258.228 238.639 278.358 251.226 296.327C263.862 314.344 279.765 329.959 297.83 342.018C315.991 354.077 335.978 362.821 356.829 368.01C377.729 373.007 399.253 374.352 420.248 372.19C430.77 371.085 441.148 369.163 451.237 366.329C461.279 363.398 471.032 359.602 480.353 355.038C460.654 361.572 440.187 364.647 419.864 364.551C399.541 364.407 379.41 361.476 360.529 354.99C322.621 342.498 289.614 317.227 269.051 284.412C263.91 276.196 259.49 267.5 255.791 258.516C252.091 249.579 249.112 240.451 246.998 231.034C242.819 212.297 241.81 192.502 243.635 173.332C245.509 154.162 250.265 135.617 258.673 118.465C266.985 101.217 278.228 85.6022 292.065 72.6301C347.172 19.0601 439.899 10.412 506.489 51.5864C523.208 61.5798 538.199 74.5039 550.642 89.59C563.038 104.724 572.983 122.26 579.277 140.998C585.763 159.735 588.405 179.962 588.309 200.285C588.213 220.56 584.994 241.027 577.98 260.582C582.736 251.405 586.724 241.7 589.799 231.659C592.73 221.617 594.795 211.24 595.997 200.766C598.543 179.77 597.534 158.198 592.489 137.202Z" fill="#F8F8F8"/>
<path d="M417.174 178.474C416.549 178.234 415.925 178.041 415.252 177.897L408.862 120.435L406.556 178.186C400.406 180.203 395.938 185.921 395.938 192.791C395.938 201.295 402.856 208.214 411.36 208.214C419.864 208.214 426.783 201.295 426.783 192.791C426.783 190.725 426.35 188.803 425.63 186.978L496.544 107.559L417.174 178.474Z" fill="#F8F8F8"/>
</svg>
