<svg width="30" height="27" viewBox="0 0 30 27" fill="none" xmlns="http://www.w3.org/2000/svg">
<path d="M29.4767 14.1923H28.6047C28.4407 8.865 25.3709 4.41 20.7942 2.42308H26.5116V3.28846C26.5116 3.42617 26.5668 3.55824 26.6649 3.65561C26.763 3.75299 26.8961 3.80769 27.0349 3.80769C27.1737 3.80769 27.3068 3.75299 27.4049 3.65561C27.503 3.55824 27.5581 3.42617 27.5581 3.28846V0.519231C27.5581 0.381522 27.503 0.249454 27.4049 0.152079C27.3068 0.0547045 27.1737 0 27.0349 0C26.8961 0 26.763 0.0547045 26.6649 0.152079C26.5668 0.249454 26.5116 0.381522 26.5116 0.519231V1.38462H17.093V0.519231C17.093 0.381522 17.0379 0.249454 16.9398 0.152079C16.8416 0.0547045 16.7085 0 16.5698 0H13.7791C13.6403 0 13.5072 0.0547045 13.4091 0.152079C13.3109 0.249454 13.2558 0.381522 13.2558 0.519231V1.38462H3.83721V0.519231C3.83721 0.381522 3.78208 0.249454 3.68395 0.152079C3.58582 0.0547045 3.45273 0 3.31395 0C3.17518 0 3.04209 0.0547045 2.94396 0.152079C2.84583 0.249454 2.7907 0.381522 2.7907 0.519231V3.28846C2.7907 3.42617 2.84583 3.55824 2.94396 3.65561C3.04209 3.75299 3.17518 3.80769 3.31395 3.80769C3.45273 3.80769 3.58582 3.75299 3.68395 3.65561C3.78208 3.55824 3.83721 3.42617 3.83721 3.28846V2.42308H9.53721C7.13933 3.43742 5.0918 5.12397 3.6456 7.27597C2.19939 9.42798 1.41735 11.9519 1.39535 14.5385H0.523256C0.38448 14.5385 0.251388 14.5932 0.153258 14.6905C0.0551285 14.7879 0 14.92 0 15.0577V17.8269C0 17.9646 0.0551285 18.0967 0.153258 18.1941C0.251388 18.2915 0.38448 18.3462 0.523256 18.3462H3.31395C3.45273 18.3462 3.58582 18.2915 3.68395 18.1941C3.78208 18.0967 3.83721 17.9646 3.83721 17.8269V15.0577C3.83721 14.92 3.78208 14.7879 3.68395 14.6905C3.58582 14.5932 3.45273 14.5385 3.31395 14.5385H2.44186C2.47679 11.5717 3.59008 8.71731 5.57696 6.50022C7.56383 4.28314 10.2906 2.85252 13.2558 2.47154V3.28846C13.2558 3.42617 13.3109 3.55824 13.4091 3.65561C13.5072 3.75299 13.6403 3.80769 13.7791 3.80769H14.6791L9.24767 17.4842C9.20179 17.6035 9.20179 17.7354 9.24767 17.8546L11.1942 23.1127L11.1628 26.4773C11.1623 26.5458 11.1755 26.6137 11.2016 26.6771C11.2277 26.7405 11.2662 26.7981 11.3148 26.8467C11.3634 26.8953 11.4213 26.9338 11.485 26.9601C11.5487 26.9865 11.617 27 11.686 27H18.314C18.4527 27 18.5858 26.9453 18.684 26.8479C18.7821 26.7505 18.8372 26.6185 18.8372 26.4808V23.13L21.2128 17.8858C21.2401 17.8217 21.2542 17.7528 21.2542 17.6833C21.2542 17.6137 21.2401 17.5448 21.2128 17.4808L15.6698 3.80769H16.5698C16.7085 3.80769 16.8416 3.75299 16.9398 3.65561C17.0379 3.55824 17.093 3.42617 17.093 3.28846V2.47154C23.0233 3.27808 27.3453 8.11385 27.5581 14.1923H26.686C26.5473 14.1923 26.4142 14.247 26.316 14.3444C26.2179 14.4418 26.1628 14.5738 26.1628 14.7115V17.4808C26.1628 17.6185 26.2179 17.7505 26.316 17.8479C26.4142 17.9453 26.5473 18 26.686 18H29.4767C29.6155 18 29.7486 17.9453 29.8467 17.8479C29.9449 17.7505 30 17.6185 30 17.4808V14.7115C30 14.5738 29.9449 14.4418 29.8467 14.3444C29.7486 14.247 29.6155 14.1923 29.4767 14.1923ZM2.7907 17.3077H1.04651V15.5769H2.7907V17.3077ZM12.2093 25.9615L12.2302 23.5385H17.7907V25.9615H12.2093ZM17.9756 22.5H12.0802L10.2942 17.6815L14.6512 6.71192V16.0962C14.6512 16.2339 14.7063 16.3659 14.8044 16.4633C14.9025 16.5607 15.0356 16.6154 15.1744 16.6154C15.3132 16.6154 15.4463 16.5607 15.5444 16.4633C15.6425 16.3659 15.6977 16.2339 15.6977 16.0962V6.66L20.1663 17.6538L17.9756 22.5ZM16.0465 2.76923H14.3023V1.03846H16.0465V2.76923ZM28.9535 16.9615H27.2093V15.2308H28.9535V16.9615Z" fill="#A80532"/>
</svg>
