<svg width="1274" height="182" viewBox="0 0 1274 182" fill="none" xmlns="http://www.w3.org/2000/svg">
<path d="M375.742 150.465C370.306 150.465 365.476 149.503 361.231 147.621C356.987 145.739 353.641 142.896 351.174 139.153C348.707 135.411 347.494 130.727 347.494 125.103C347.494 120.377 348.372 116.405 350.108 113.185C351.843 109.965 354.206 107.393 357.196 105.427C360.186 103.462 363.594 101.998 367.42 100.995C371.246 99.9912 375.261 99.3012 379.464 98.883C384.419 98.3603 388.392 97.8795 391.423 97.4195C394.455 96.9595 396.651 96.2694 398.01 95.3495C399.369 94.4295 400.059 93.0495 400.059 91.2514V90.9168C400.059 87.4042 398.95 84.6861 396.755 82.7625C394.56 80.8389 391.444 79.877 387.43 79.877C383.185 79.877 379.798 80.8179 377.289 82.6788C374.78 84.5397 373.107 86.8815 372.313 89.6832L350.484 87.906C351.592 82.7415 353.767 78.2671 357.029 74.4617C360.269 70.6772 364.472 67.75 369.637 65.701C374.78 63.6519 380.76 62.6274 387.555 62.6274C392.281 62.6274 396.818 63.1919 401.146 64.2792C405.495 65.3873 409.342 67.1018 412.729 69.4227C416.116 71.7436 418.772 74.7335 420.737 78.3716C422.703 82.0097 423.665 86.3588 423.665 91.4187V148.813H401.271V137.021H400.602C399.243 139.676 397.403 142.018 395.124 144.025C392.845 146.032 390.085 147.6 386.865 148.729C383.666 149.9 379.944 150.465 375.742 150.465ZM382.495 134.177C385.966 134.177 389.04 133.487 391.695 132.107C394.351 130.727 396.441 128.845 397.947 126.483C399.452 124.12 400.226 121.444 400.226 118.454V109.421C399.494 109.902 398.491 110.341 397.215 110.717C395.94 111.094 394.518 111.449 392.929 111.763C391.34 112.076 389.751 112.348 388.162 112.599C386.573 112.85 385.13 113.059 383.834 113.226C381.074 113.624 378.648 114.272 376.578 115.171C374.508 116.07 372.898 117.241 371.748 118.746C370.598 120.252 370.034 122.092 370.034 124.308C370.034 127.528 371.205 129.974 373.546 131.647C375.888 133.341 378.878 134.177 382.495 134.177Z" fill="#003876"/>
<path d="M477.588 63.7569V81.4875H426.341V63.7569H477.588ZM437.966 43.3709H461.572V122.698C461.572 124.873 461.906 126.567 462.575 127.758C463.245 128.95 464.164 129.807 465.377 130.288C466.569 130.769 467.97 130.999 469.559 130.999C470.667 130.999 471.775 130.895 472.883 130.686C473.992 130.477 474.849 130.33 475.434 130.205L479.156 147.768C477.964 148.144 476.312 148.562 474.18 149.064C472.047 149.566 469.433 149.859 466.36 149.984C460.673 150.214 455.696 149.441 451.431 147.705C447.166 145.97 443.841 143.273 441.479 139.614C439.116 135.955 437.945 131.334 437.987 125.772V43.3709H437.966Z" fill="#003876"/>
<path d="M587.965 92.1297C587.965 104.508 585.623 115.025 580.96 123.702C576.277 132.379 569.942 139.007 561.892 143.565C553.842 148.123 544.83 150.402 534.836 150.402C524.758 150.402 515.704 148.123 507.696 143.523C499.688 138.944 493.353 132.316 488.69 123.639C484.028 114.962 481.707 104.445 481.707 92.1087C481.707 79.7308 484.028 69.2137 488.69 60.5366C493.353 51.8595 499.667 45.2315 507.696 40.6734C515.704 36.1153 524.758 33.8362 534.836 33.8362C544.851 33.8362 553.863 36.1153 561.892 40.6734C569.921 45.2315 576.277 51.8595 580.96 60.5366C585.623 69.2137 587.965 79.7517 587.965 92.1297ZM563.648 92.1297C563.648 84.1216 562.456 77.3472 560.073 71.8482C557.689 66.3492 554.344 62.1675 550.015 59.3239C545.687 56.4804 540.628 55.0585 534.836 55.0585C529.044 55.0585 523.984 56.4804 519.656 59.3239C515.328 62.1675 511.983 66.3492 509.599 71.8482C507.215 77.3472 506.024 84.1216 506.024 92.1297C506.024 100.138 507.215 106.912 509.599 112.411C511.983 117.91 515.328 122.092 519.656 124.935C523.984 127.779 529.044 129.201 534.836 129.201C540.628 129.201 545.687 127.779 550.015 124.935C554.344 122.092 557.689 117.91 560.073 112.411C562.456 106.891 563.648 100.138 563.648 92.1297Z" fill="#003876"/>
<path d="M619.182 99.6567V148.855H595.576V63.7565H618.074V78.7689H619.077C620.959 73.8135 624.116 69.9036 628.549 66.9973C632.982 64.091 638.355 62.6483 644.67 62.6483C650.587 62.6483 655.73 63.9447 660.121 66.5164C664.512 69.1091 667.92 72.789 670.366 77.5771C672.813 82.3652 674.025 88.0524 674.025 94.6595V148.834H650.42V98.8622C650.461 93.6559 649.123 89.5787 646.426 86.6515C643.729 83.7243 640.007 82.2397 635.282 82.2397C632.104 82.2397 629.302 82.9298 626.897 84.2888C624.472 85.6479 622.59 87.6342 621.252 90.2477C619.914 92.8613 619.224 95.9976 619.182 99.6567Z" fill="#003876"/>
<path d="M721.362 150.507C712.644 150.507 705.158 148.646 698.907 144.945C692.634 141.223 687.846 136.08 684.5 129.452C681.155 122.823 679.482 115.234 679.482 106.619C679.482 97.9004 681.176 90.2478 684.542 83.6615C687.909 77.0753 692.739 71.9109 698.969 68.21C705.221 64.4883 712.644 62.6483 721.237 62.6483C728.66 62.6483 735.162 64.0074 740.745 66.6837C746.327 69.3809 750.739 73.1654 753.98 78.0371C757.221 82.9088 759.019 88.6378 759.354 95.2032H737.086C736.459 90.9587 734.807 87.5296 732.13 84.9161C729.454 82.3025 725.962 81.0061 721.634 81.0061C717.975 81.0061 714.797 81.9888 712.079 83.9751C709.361 85.9615 707.249 88.826 705.744 92.5896C704.238 96.3531 703.465 100.911 703.465 106.264C703.465 111.7 704.217 116.3 705.702 120.105C707.186 123.911 709.319 126.817 712.037 128.803C714.776 130.79 717.954 131.793 721.613 131.793C724.311 131.793 726.736 131.25 728.89 130.142C731.043 129.033 732.841 127.423 734.263 125.291C735.685 123.158 736.626 120.607 737.065 117.617H759.333C758.956 124.12 757.2 129.828 754.043 134.762C750.886 139.697 746.537 143.544 740.996 146.304C735.497 149.127 728.931 150.507 721.362 150.507Z" fill="#003876"/>
<path d="M803.659 150.507C794.898 150.507 787.371 148.729 781.077 145.154C774.784 141.6 769.933 136.54 766.525 129.974C763.117 123.409 761.423 115.652 761.423 106.682C761.423 97.9213 763.117 90.2478 766.525 83.6407C769.912 77.0335 774.721 71.869 780.91 68.1891C787.099 64.4883 794.355 62.6483 802.718 62.6483C808.322 62.6483 813.57 63.5474 818.42 65.3456C823.271 67.1437 827.516 69.82 831.154 73.3953C834.792 76.9707 837.636 81.4661 839.664 86.8815C841.692 92.2968 842.716 98.6112 842.716 105.867V112.348H770.853V97.7122H820.49C820.49 94.325 819.759 91.3141 818.274 88.6796C816.79 86.066 814.761 83.9961 812.148 82.5116C809.534 81.0061 806.523 80.2743 803.094 80.2743C799.519 80.2743 796.341 81.0897 793.602 82.7415C790.842 84.3933 788.709 86.5888 787.141 89.3278C785.594 92.0878 784.799 95.1404 784.757 98.5067V112.411C784.757 116.614 785.552 120.252 787.12 123.325C788.688 126.399 790.905 128.762 793.79 130.413C796.675 132.065 800.084 132.902 804.035 132.902C806.649 132.902 809.053 132.525 811.228 131.793C813.402 131.062 815.263 129.953 816.831 128.469C818.379 126.984 819.57 125.186 820.386 123.033L842.215 124.475C841.106 129.723 838.848 134.281 835.419 138.191C832.011 142.08 827.599 145.112 822.226 147.287C816.873 149.44 810.684 150.507 803.659 150.507Z" fill="#003876"/>
<path d="M886.98 35.3837H903.372L941.928 129.556H943.266L981.822 35.3837H998.214V148.855H985.355V62.6486H984.247L948.786 148.855H936.366L900.905 62.6486H899.797V148.855H886.938V35.3837H886.98Z" fill="#003876"/>
<path d="M1049.92 150.632C1041.73 150.632 1034.66 148.813 1028.74 145.175C1022.82 141.537 1018.25 136.435 1015.07 129.891C1011.87 123.325 1010.28 115.694 1010.28 106.975C1010.28 98.2558 1011.87 90.5614 1015.07 83.8915C1018.27 77.2217 1022.74 72.0154 1028.47 68.2728C1034.2 64.5301 1040.93 62.6483 1048.6 62.6483C1053.04 62.6483 1057.41 63.3801 1061.74 64.8646C1066.06 66.3491 1069.99 68.7327 1073.53 72.0363C1077.08 75.3399 1079.9 79.7098 1082 85.1461C1084.11 90.5823 1085.15 97.2522 1085.15 105.198V110.738H1019.56V99.4267H1071.85C1071.85 94.6177 1070.89 90.3314 1069.01 86.5679C1067.11 82.8043 1064.41 79.8352 1060.92 77.6398C1057.43 75.4653 1053.33 74.3781 1048.58 74.3781C1043.38 74.3781 1038.88 75.6535 1035.1 78.2252C1031.31 80.797 1028.41 84.1216 1026.38 88.2197C1024.35 92.3178 1023.33 96.7086 1023.33 101.413V108.94C1023.33 115.359 1024.43 120.816 1026.67 125.249C1028.91 129.702 1032.02 133.09 1036 135.39C1039.99 137.69 1044.61 138.86 1049.9 138.86C1053.33 138.86 1056.45 138.38 1059.23 137.397C1062.01 136.414 1064.43 134.951 1066.46 132.964C1068.49 130.999 1070.06 128.532 1071.17 125.563L1083.79 129.117C1082.46 133.403 1080.22 137.167 1077.08 140.387C1073.95 143.628 1070.06 146.137 1065.46 147.914C1060.88 149.733 1055.69 150.632 1049.92 150.632Z" fill="#003876"/>
<path d="M1127.58 150.632C1120.49 150.632 1114.22 148.834 1108.8 145.238C1103.36 141.642 1099.12 136.54 1096.07 129.954C1093.01 123.367 1091.47 115.568 1091.47 106.557C1091.47 97.6287 1092.99 89.8716 1096.07 83.2854C1099.14 76.72 1103.41 71.6392 1108.86 68.0429C1114.32 64.4466 1120.63 62.6694 1127.81 62.6694C1133.35 62.6694 1137.74 63.5894 1140.96 65.4085C1144.18 67.2275 1146.67 69.2975 1148.38 71.6184C1150.09 73.9183 1151.43 75.821 1152.39 77.3055H1153.5V35.4254H1166.57V148.897H1153.94V135.829H1152.39C1151.43 137.376 1150.07 139.321 1148.3 141.683C1146.52 144.025 1143.99 146.116 1140.71 147.935C1137.4 149.712 1133.03 150.632 1127.58 150.632ZM1129.35 138.882C1134.6 138.882 1139.03 137.502 1142.65 134.763C1146.27 132.003 1149.03 128.197 1150.91 123.305C1152.79 118.412 1153.73 112.746 1153.73 106.327C1153.73 99.9705 1152.81 94.4088 1150.95 89.6207C1149.11 84.8326 1146.37 81.1109 1142.76 78.4345C1139.14 75.7582 1134.66 74.4201 1129.35 74.4201C1123.81 74.4201 1119.21 75.8419 1115.53 78.6646C1111.85 81.4872 1109.11 85.3135 1107.27 90.1225C1105.43 94.9524 1104.53 100.347 1104.53 106.327C1104.53 112.39 1105.48 117.868 1107.34 122.803C1109.2 127.737 1111.98 131.647 1115.64 134.553C1119.3 137.439 1123.88 138.882 1129.35 138.882Z" fill="#003876"/>
<path d="M1189.26 49.5806C1186.71 49.5806 1184.51 48.7024 1182.69 46.967C1180.87 45.2316 1179.95 43.1407 1179.95 40.7153C1179.95 38.269 1180.87 36.199 1182.69 34.4636C1184.53 32.7281 1186.71 31.85 1189.26 31.85C1191.81 31.85 1194 32.7281 1195.82 34.4636C1197.64 36.199 1198.56 38.2899 1198.56 40.7153C1198.56 43.1616 1197.64 45.2316 1195.82 46.967C1194 48.7024 1191.81 49.5806 1189.26 49.5806ZM1182.61 148.855V63.7566H1195.68V148.855H1182.61Z" fill="#003876"/>
<path d="M1234.98 150.841C1229.59 150.841 1224.7 149.816 1220.31 147.767C1215.92 145.718 1212.42 142.749 1209.83 138.839C1207.24 134.95 1205.96 130.225 1205.96 124.684C1205.96 119.813 1206.92 115.84 1208.85 112.808C1210.77 109.755 1213.34 107.372 1216.54 105.636C1219.76 103.901 1223.32 102.605 1227.21 101.727C1231.1 100.848 1235.03 100.158 1238.98 99.6566C1244.14 98.9875 1248.34 98.4857 1251.59 98.1303C1254.83 97.7748 1257.19 97.1893 1258.67 96.3321C1260.18 95.4748 1260.91 94.0112 1260.91 91.8995V91.4604C1260.91 86.0032 1259.43 81.7379 1256.46 78.727C1253.49 75.6953 1248.99 74.1898 1242.97 74.1898C1236.72 74.1898 1231.83 75.5489 1228.29 78.288C1224.74 81.027 1222.25 83.9332 1220.81 87.0486L1208.39 82.616C1210.6 77.4516 1213.57 73.4162 1217.27 70.5099C1220.98 67.6036 1225.05 65.5755 1229.46 64.4046C1233.88 63.2337 1238.22 62.6692 1242.51 62.6692C1245.25 62.6692 1248.39 62.9828 1251.96 63.631C1255.54 64.2791 1258.99 65.5964 1262.33 67.5827C1265.68 69.569 1268.46 72.5799 1270.68 76.6152C1272.89 80.6506 1274 86.0241 1274 92.7985V148.855H1260.93V137.334H1260.26C1259.38 139.174 1257.9 141.16 1255.83 143.251C1253.76 145.342 1251 147.14 1247.57 148.625C1244.12 150.109 1239.94 150.841 1234.98 150.841ZM1236.97 139.111C1242.13 139.111 1246.5 138.087 1250.08 136.059C1253.63 134.03 1256.33 131.396 1258.17 128.197C1259.99 124.977 1260.91 121.611 1260.91 118.056V106.096C1260.37 106.766 1259.15 107.351 1257.27 107.895C1255.41 108.438 1253.26 108.898 1250.85 109.275C1248.43 109.672 1246.09 109.985 1243.81 110.278C1241.53 110.55 1239.69 110.78 1238.29 110.968C1234.88 111.407 1231.72 112.118 1228.8 113.101C1225.87 114.084 1223.48 115.547 1221.71 117.471C1219.91 119.415 1219.01 122.05 1219.01 125.374C1219.01 129.911 1220.7 133.34 1224.07 135.661C1227.44 137.982 1231.76 139.111 1236.97 139.111Z" fill="#003876"/>
<path d="M123.374 162.022C114.806 153.653 108.039 143.652 103.12 131.996C98.1775 120.364 95.7295 107.636 95.7295 93.8351C95.7295 80.5008 98.2006 68.1689 103.12 56.8627C107.97 45.743 114.598 36.1385 122.982 28.096C121.434 25.858 119.725 23.8066 117.762 22.0815C108.247 13.596 91.8264 6.27612 69.6088 6.27612C48.5922 6.27612 33.4418 12.3139 23.0259 18.1651C12.61 24.0164 7.41353 31.9657 7.41353 42.0131C7.41353 48.4938 8.89164 53.5291 11.8709 57.0725C14.8502 60.6392 19.0997 62.4109 24.6656 62.4109C30.4163 62.4109 34.9199 60.9422 38.1994 58.0283C41.4789 55.091 43.9963 51.0114 45.7746 45.7896C48.3382 38.2599 51.1327 32.8748 54.112 29.6345C57.0912 26.3942 61.4562 24.7623 67.2069 24.7623C75.729 24.7623 82.034 27.5365 86.0988 33.0847C90.1635 38.6329 92.1959 47.468 92.1959 59.6135V72.7846L50.2551 91.9235C32.2177 99.663 19.3306 107.566 11.5937 115.632C3.85687 123.697 0 132.323 0 141.531C0 153.467 3.76451 163.141 11.2935 170.554C18.8226 177.991 28.8459 181.697 41.3403 181.697C53.0265 181.697 63.4424 178.876 72.565 173.212C81.6876 167.57 89.1243 159.295 94.875 148.408H94.9211C94.9211 159.085 98.755 167.337 103.513 173.212C108.27 179.063 115.199 182 124.344 182C131.689 182 138.271 180.485 144.114 177.454C144.183 177.408 144.252 177.361 144.345 177.338C136.608 173.188 129.61 168.106 123.374 162.022ZM92.1728 119.198C92.1728 123.791 91.3183 128.15 89.6554 132.23C87.9695 136.309 85.6369 139.806 82.6576 142.743C79.6783 145.68 76.1217 148.035 71.9414 149.807C67.7843 151.578 63.3038 152.464 58.5462 152.464C53.7886 152.464 49.8163 150.693 46.6522 147.126C43.4882 143.559 41.8946 138.757 41.8946 132.696C41.8946 125.376 46.098 118.313 54.5277 111.505C62.9574 104.698 75.4981 97.3319 92.1497 89.3826V119.198H92.1728Z" fill="#003876"/>
<path d="M284.52 65.886C281.982 55.8037 277.437 46.3212 271.415 37.7386C265.347 29.179 257.549 21.8884 248.851 16.0282C240.13 10.168 230.463 5.71516 220.173 3.08499C209.906 0.431756 199.27 -0.468087 188.703 0.224063C167.523 1.72372 146.782 10.514 131.163 25.2568C123.387 32.6859 117.066 41.6608 112.567 51.3047C107.999 60.9717 105.207 71.6078 104.538 82.1977C103.869 92.7876 104.722 103.331 107.376 113.667C110.006 124.003 114.597 133.671 120.642 142.299C126.71 150.951 134.346 158.449 143.021 164.24C151.742 170.031 161.34 174.23 171.353 176.722C181.389 179.122 191.726 179.768 201.808 178.729C206.861 178.199 211.844 177.276 216.689 175.915C221.511 174.507 226.195 172.685 230.671 170.493C221.211 173.631 211.383 175.107 201.623 175.061C191.864 174.992 182.197 173.584 173.13 170.47C154.926 164.471 139.076 152.335 129.201 136.578C126.733 132.632 124.61 128.456 122.834 124.142C121.057 119.851 119.627 115.467 118.612 110.945C116.604 101.947 116.12 92.4415 116.997 83.2359C117.896 74.0303 120.18 65.1247 124.218 56.8881C128.209 48.6054 133.608 41.1071 140.253 34.8777C166.716 9.15284 211.244 4.99993 243.221 24.7723C251.25 29.5712 258.449 35.7775 264.424 43.022C270.377 50.2896 275.153 58.7107 278.175 67.7086C281.29 76.7066 282.559 86.4198 282.513 96.1791C282.466 105.915 280.921 115.744 277.552 125.134C279.836 120.727 281.751 116.067 283.228 111.245C284.635 106.423 285.627 101.439 286.204 96.4098C287.427 86.3275 286.942 75.9683 284.52 65.886Z" fill="#A80532"/>
<path d="M200.331 85.7045C200.032 85.5892 199.732 85.4969 199.409 85.4277L196.34 57.8339L195.233 85.5661C192.279 86.5351 190.134 89.2807 190.134 92.5799C190.134 96.6636 193.456 99.9859 197.54 99.9859C201.623 99.9859 204.946 96.6636 204.946 92.5799C204.946 91.5878 204.738 90.6649 204.392 89.7882L238.446 51.6508L200.331 85.7045Z" fill="#A80532"/>
</svg>
