<svg width="20" height="27" viewBox="0 0 20 27" fill="none" xmlns="http://www.w3.org/2000/svg">
<path d="M19.0479 25.4861L10.5429 13.2011V10.6071H12.2401L15.8947 12.4296C16.029 12.4985 16.1777 12.5348 16.3286 12.5357C16.5092 12.5363 16.6863 12.4862 16.8397 12.3911C16.9787 12.3042 17.0932 12.1834 17.1725 12.04C17.2518 11.8966 17.2932 11.7353 17.2929 11.5714V3.85714C17.2924 3.69277 17.2499 3.53124 17.1694 3.38792C17.089 3.2446 16.9732 3.12423 16.8331 3.03823C16.6929 2.95225 16.5333 2.9035 16.369 2.89662C16.2047 2.88974 16.0415 2.92496 15.8947 2.99893L13.9661 3.96321L15.239 1.40786C15.3145 1.26216 15.3516 1.09961 15.3467 0.935589C15.3419 0.771554 15.2952 0.611483 15.2112 0.470514C15.1272 0.329545 15.0086 0.212345 14.8667 0.130015C14.7247 0.0476743 14.5642 0.00293143 14.4001 0H4.75721C4.5928 0.000501429 4.43128 0.0430072 4.28799 0.123487C4.14469 0.203975 4.02425 0.319757 3.93834 0.459849C3.85232 0.59994 3.80353 0.759693 3.79668 0.923921C3.78981 1.08816 3.82503 1.25142 3.89899 1.39821L5.17185 3.95357L3.24328 2.98929C3.09651 2.91937 2.93444 2.88772 2.77214 2.89723C2.60985 2.90676 2.45259 2.95717 2.315 3.04377C2.17741 3.13036 2.06395 3.25034 1.98516 3.39254C1.90637 3.53475 1.86481 3.69457 1.86435 3.85714V11.5714C1.86402 11.7353 1.90547 11.8966 1.98476 12.04C2.06406 12.1834 2.1786 12.3042 2.31757 12.3911C2.47102 12.4862 2.6481 12.5363 2.82864 12.5357C2.97959 12.5348 3.12822 12.4985 3.26257 12.4296L6.91721 10.6071H8.61435V13.2011L4.15935 19.6425C4.05907 19.787 4.00024 19.9563 3.98925 20.1318C3.97826 20.3074 4.01548 20.4827 4.09696 20.6386C4.17835 20.7945 4.30091 20.9252 4.45124 21.0164C4.60167 21.1077 4.77418 21.1561 4.95007 21.1564C5.10551 21.1561 5.25864 21.1183 5.39634 21.0461C5.53394 20.9739 5.65216 20.8696 5.74078 20.7418L8.63364 16.5857V26.0357C8.63364 26.2914 8.73527 26.5368 8.91608 26.7176C9.09688 26.8984 9.3422 27 9.59792 27C9.85365 27 10.099 26.8984 10.2798 26.7176C10.4606 26.5368 10.5622 26.2914 10.5622 26.0357V16.5857L17.4858 26.5854C17.6318 26.7948 17.8549 26.9378 18.1061 26.9829C18.3574 27.0282 18.6163 26.9718 18.8261 26.8264C19.0325 26.6774 19.1716 26.4531 19.2132 26.202C19.2547 25.9509 19.1953 25.6936 19.0479 25.4861ZM15.3644 10.0093L13.4358 9.045V6.38357L15.3644 5.41929V10.0093ZM12.8379 1.92857L11.8736 3.85714H7.28364L6.31935 1.92857H12.8379ZM3.79292 5.41929L5.72149 6.38357V9.045L3.79292 10.0093V5.41929ZM7.65007 8.67857V5.78571H11.5072V8.67857H7.65007Z" fill="#A80532"/>
<path d="M2.07649 22.6318L0.147918 25.5246C0.0590876 25.6659 0.00846253 25.8279 0.00097003 25.9946C-0.00651283 26.1614 0.0293976 26.3271 0.1052 26.4758C0.181003 26.6245 0.294094 26.751 0.433423 26.8428C0.572743 26.9347 0.733538 26.9889 0.900061 27C1.05552 26.9997 1.20861 26.9619 1.34629 26.8897C1.48397 26.8175 1.60216 26.7131 1.69078 26.5854L3.61935 23.6925C3.76478 23.4827 3.82108 23.2238 3.77588 22.9725C3.73068 22.7213 3.5877 22.4981 3.37828 22.3521C3.16695 22.2225 2.91379 22.1792 2.67137 22.2312C2.42896 22.2833 2.21591 22.4268 2.07649 22.6318Z" fill="#A80532"/>
</svg>
