<?xml version="1.0" standalone="no"?>
<!DOCTYPE svg PUBLIC "-//W3C//DTD SVG 20010904//EN"
 "http://www.w3.org/TR/2001/REC-SVG-20010904/DTD/svg10.dtd">
<svg version="1.0" xmlns="http://www.w3.org/2000/svg"
 width="283.000000pt" height="283.000000pt" viewBox="0 0 283.000000 283.000000"
 preserveAspectRatio="xMidYMid meet">
<metadata>
Created by potrace 1.14, written by Peter Selinger 2001-2017
</metadata>
<g transform="translate(0.000000,283.000000) scale(0.100000,-0.100000)"
fill="#000000" stroke="none">
<path d="M1797 2314 c-1 -1 -18 -5 -37 -8 -69 -11 -170 -45 -247 -82 -250
-122 -423 -350 -473 -624 -12 -62 -15 -220 -6 -285 10 -73 39 -174 70 -245
173 -399 629 -606 1047 -474 79 25 107 42 38 24 -59 -15 -111 -21 -202 -21
-406 0 -732 254 -820 637 -21 87 -21 254 -2 349 76 371 410 621 813 610 314
-8 591 -182 722 -453 56 -115 72 -186 76 -332 2 -74 0 -151 -5 -170 -5 -19
-12 -53 -15 -75 -9 -67 43 90 55 165 61 373 -119 717 -467 893 -127 64 -273
96 -437 94 -59 0 -108 -2 -110 -3z"/>
<path d="M579 2255 c-3 -2 -27 -7 -54 -10 -71 -9 -220 -60 -290 -100 -114 -64
-166 -148 -160 -255 7 -126 63 -184 177 -182 100 1 148 42 203 175 62 147 102
187 192 191 120 6 203 -49 237 -157 23 -73 33 -299 14 -315 -7 -6 -53 -28
-103 -50 -49 -22 -128 -58 -175 -79 -47 -22 -110 -51 -140 -64 -325 -143 -472
-290 -477 -476 -6 -249 165 -409 426 -398 47 2 97 6 110 9 84 19 152 52 221
105 59 46 69 56 125 132 26 35 48 65 49 67 2 1 3 -11 4 -27 1 -45 22 -112 49
-158 59 -102 135 -139 266 -130 45 2 101 13 125 22 l42 17 -73 49 c-210 138
-350 358 -393 619 -10 58 -10 229 -1 303 17 144 109 339 215 456 38 42 39 46
25 68 -20 31 -105 92 -167 121 -97 45 -184 63 -317 68 -70 2 -128 2 -130 -1z
m329 -981 c0 -186 -10 -240 -60 -315 -75 -112 -252 -172 -348 -118 -84 47
-112 178 -58 269 47 78 96 122 223 200 54 33 233 130 241 130 1 0 2 -75 2
-166z"/>
<path d="M2240 1717 c-25 -23 -83 -76 -130 -117 -47 -41 -96 -85 -110 -97 -14
-13 -28 -23 -32 -23 -5 0 -8 10 -9 23 0 12 -2 31 -3 42 -2 11 -6 52 -10 90
-10 88 -16 95 -17 19 -2 -142 -6 -162 -33 -194 -29 -35 -31 -48 -14 -84 29
-65 128 -41 132 32 1 21 18 49 56 93 30 34 63 72 73 83 39 45 92 103 126 139
48 51 26 47 -29 -6z"/>
</g>
</svg>
