<svg width="946" height="519" viewBox="0 0 946 519" fill="none" xmlns="http://www.w3.org/2000/svg">
<path opacity="0.45" fill-rule="evenodd" clip-rule="evenodd" d="M33.6327 182.212C24.5776 182.212 17.8772 190.094 18.1772 198.641C18.4652 206.853 18.0911 217.489 15.3988 226.162C12.6969 234.86 8.13055 240.372 0.670471 241.079V249.066C8.13055 249.775 12.6969 255.284 15.3984 263.983C18.0911 272.657 18.4649 283.293 18.1769 291.504C17.8769 300.051 24.5772 307.934 33.6339 307.934H126.419C135.474 307.934 142.173 300.052 141.873 291.504C141.585 283.293 141.959 272.657 144.652 263.983C147.354 255.284 151.909 249.773 159.369 249.066V241.079C151.909 240.37 147.354 234.861 144.652 226.162C141.959 217.49 141.585 206.853 141.873 198.641C142.173 190.095 135.474 182.212 126.419 182.212H33.6314H33.6327ZM108.263 259.602C108.263 271.372 99.4349 278.51 84.7848 278.51H59.8461C59.1328 278.51 58.4486 278.228 57.9442 277.726C57.4397 277.225 57.1563 276.544 57.1563 275.835V214.311C57.1563 213.602 57.4397 212.921 57.9442 212.42C58.4486 211.918 59.1328 211.636 59.8461 211.636H84.6428C96.8586 211.636 104.876 218.217 104.876 228.32C104.876 235.411 99.4824 241.759 92.6115 242.871V243.241C101.965 244.262 108.263 250.704 108.263 259.602ZM82.0655 220.116H67.8459V240.09H79.8223C89.0808 240.09 94.1858 236.382 94.1858 229.755C94.1849 223.545 89.7959 220.116 82.0655 220.116ZM67.8459 248.015V270.027H82.5887C92.2284 270.027 97.3344 266.181 97.3344 258.952C97.3344 251.723 92.0852 248.014 81.9688 248.014H67.8459V248.015Z" fill="black"/>
<g opacity="0.45">
<path d="M343.011 181.79C307.608 181.79 278.908 210.49 278.908 245.892C278.908 281.295 307.608 309.995 343.011 309.995C378.414 309.995 407.113 281.295 407.113 245.892C407.113 210.49 378.414 181.79 343.011 181.79ZM292.682 246.561L342.342 296.221C315.073 295.865 293.038 273.83 292.682 246.561ZM354.277 294.963L293.941 234.626C299.057 212.25 319.084 195.556 343.011 195.556C359.736 195.556 374.554 203.715 383.707 216.268L376.738 222.418C369.313 211.77 356.976 204.801 343.011 204.801C325.23 204.801 310.088 216.095 304.365 231.901L357.002 284.539C369.786 279.91 379.617 269.119 382.909 255.754H361.091V245.893H384.102V245.892H393.348V245.892C393.348 269.82 376.653 289.846 354.277 294.963Z" fill="black"/>
</g>
<g opacity="0.45">
<path d="M457.523 295.06L447.912 187.263H553.52L543.899 295.043L500.652 307.033L457.523 295.06Z" fill="#010101"/>
<path d="M500.716 297.868L535.662 288.18L543.884 196.077H500.716V297.868Z" fill="#010101"/>
<path d="M500.716 236.057H483.221L482.013 222.519H500.716V209.297H500.67H467.564L467.881 212.844L471.13 249.278H500.716V236.057Z" fill="#EBEBEB"/>
<path d="M500.716 270.393L500.658 270.408L485.934 266.433L484.993 255.888H477.838H471.721L473.573 276.647L500.655 284.165L500.716 284.148V270.393Z" fill="#EBEBEB"/>
<path d="M500.67 236.057V249.278H516.95L515.416 266.424L500.67 270.404V284.159L527.774 276.647L527.973 274.413L531.08 239.607L531.402 236.057H527.839H500.67Z" fill="white"/>
<path d="M500.67 209.297V217.509V222.486V222.519H532.563H532.605L532.87 219.547L533.473 212.844L533.789 209.297H500.67Z" fill="white"/>
</g>
<g opacity="0.45">
<path d="M649.892 254.091V192.735L703.03 223.413V243.865L667.605 223.413V264.317L649.892 254.091Z" fill="#232323"/>
<path d="M703.03 223.413L756.167 192.735V254.091L720.742 274.543L703.03 264.317L738.455 243.865V223.413L703.03 243.865V223.413Z" fill="#010101"/>
<path d="M703.03 264.317V284.769L738.455 305.221V284.769L703.03 264.317Z" fill="#232323"/>
<path d="M738.455 305.221L791.592 274.543V233.639L773.88 243.865V264.317L738.455 284.769V305.221ZM773.88 223.413V202.961L791.592 192.735V213.187L773.88 223.413Z" fill="#010101"/>
</g>
<g opacity="0.45">
<path d="M70.581 35.1963H111.761V38.4693H74.3558V63.1035H109.531V66.3766H74.3558V93.4224H112.19V96.6955H70.581V35.1963ZM115.45 35.1963H119.826L139.215 62.2422L159.033 35.1963L185.989 0.841797L141.703 65.0846L164.524 96.6955H159.977L139.215 67.927L118.367 96.6955H113.906L136.898 65.0846L115.45 35.1963ZM166.154 38.4693V35.1963H213.082V38.4693H191.462V96.6955H187.687V38.4693H166.154ZM19.0627 35.1963H23.7813L88.8477 132.562L61.9588 96.6955L23.0091 39.8475L22.8375 96.6955H19.0627V35.1963ZM212.702 92.4347C211.93 92.4347 211.352 91.8371 211.352 91.0649C211.352 90.2927 211.93 89.6951 212.702 89.6951C213.482 89.6951 214.051 90.2927 214.051 91.0649C214.051 91.8371 213.482 92.4347 212.702 92.4347ZM216.411 88.8309H218.431C218.458 89.9249 219.257 90.6604 220.432 90.6604C221.745 90.6604 222.489 89.8698 222.489 88.3896V79.0125H224.546V88.3988C224.546 91.0649 223.003 92.6002 220.451 92.6002C218.054 92.6002 216.411 91.1109 216.411 88.8309ZM227.236 88.7114H229.274C229.448 89.9709 230.679 90.7707 232.451 90.7707C234.103 90.7707 235.315 89.9157 235.315 88.739C235.315 87.7277 234.544 87.121 232.79 86.7073L231.083 86.2936C228.686 85.7328 227.594 84.5744 227.594 82.6254C227.594 80.2628 229.522 78.6907 232.414 78.6907C235.104 78.6907 237.069 80.2628 237.188 82.4967H235.187C234.994 81.274 233.929 80.511 232.386 80.511C230.761 80.511 229.678 81.2924 229.678 82.4875C229.678 83.4345 230.376 83.9769 232.102 84.3814L233.562 84.7399C236.279 85.3742 237.399 86.4774 237.399 88.4724C237.399 91.0097 235.435 92.6002 232.295 92.6002C229.357 92.6002 227.383 91.0833 227.236 88.7114Z" fill="black"/>
</g>
<g opacity="0.45">
<path d="M326.077 12.2229C328.912 10.5905 332.602 10.5848 335.433 12.2229C349.679 20.3181 363.927 28.3989 378.167 36.4999C380.847 38.0165 382.637 41.0149 382.611 44.1205V92.8191C382.631 96.052 380.662 99.1228 377.836 100.605C363.64 108.654 349.449 116.714 335.255 124.763C332.363 126.427 328.598 126.297 325.795 124.5C321.539 122.019 317.274 119.548 313.017 117.07C312.148 116.549 311.167 116.132 310.554 115.284C311.098 114.549 312.068 114.457 312.856 114.135C314.632 113.568 316.264 112.656 317.898 111.771C318.31 111.487 318.816 111.594 319.211 111.849C322.851 113.947 326.457 116.106 330.109 118.187C330.889 118.639 331.678 118.04 332.343 117.666C346.274 109.748 360.224 101.858 374.153 93.9363C374.668 93.6874 374.953 93.1346 374.912 92.5673C374.921 76.5014 374.915 60.4354 374.918 44.3694C374.979 43.7239 374.607 43.1306 374.026 42.8672C359.878 34.8531 345.736 26.8302 331.591 18.8131C331.091 18.4658 330.429 18.4658 329.925 18.8102C315.78 26.8273 301.641 34.8617 287.496 42.873C286.918 43.1364 286.529 43.721 286.598 44.3694C286.601 60.4354 286.598 76.5013 286.598 92.5702C286.549 93.1375 286.855 93.6787 287.367 93.9219C291.143 96.0752 294.921 98.2111 298.7 100.359C300.827 101.511 303.44 102.194 305.785 101.314C307.855 100.567 309.305 98.4456 309.265 96.2344C309.285 80.2639 309.256 64.2905 309.279 48.32C309.227 47.6109 309.895 47.0263 310.583 47.0929C312.396 47.0813 314.212 47.0697 316.028 47.0986C316.785 47.0813 317.306 47.8454 317.213 48.5602C317.205 64.632 317.234 80.7067 317.202 96.7785C317.208 101.062 315.458 105.722 311.518 107.82C306.666 110.35 300.666 109.811 295.871 107.389C291.721 105.305 287.758 102.845 283.68 100.613C280.845 99.1373 278.889 96.0578 278.909 92.8249V44.1176C278.88 40.9484 280.742 37.8978 283.505 36.4015C297.693 28.3468 311.886 20.2834 326.077 12.2229Z" fill="black"/>
<path d="M338.413 45.7223C344.605 45.3228 351.235 45.4849 356.808 48.5532C361.124 50.9037 363.516 55.8391 363.591 60.6587C363.47 61.31 362.794 61.666 362.177 61.6226C360.381 61.6197 358.585 61.6458 356.785 61.611C356.023 61.64 355.579 60.9337 355.484 60.2563C354.969 57.9493 353.717 55.6654 351.558 54.5539C348.244 52.8865 344.401 52.9705 340.788 53.0052C338.151 53.1471 335.312 53.3757 333.078 54.936C331.363 56.117 330.841 58.5022 331.455 60.4242C332.033 61.8021 333.617 62.2479 334.912 62.6589C342.377 64.6215 350.285 64.4275 357.606 67.0096C360.637 68.0632 363.602 70.1097 364.639 73.2997C365.995 77.5751 365.402 82.687 362.376 86.1201C359.923 88.9453 356.348 90.4823 352.784 91.3189C348.042 92.3812 343.12 92.4102 338.303 91.9383C333.775 91.4202 329.062 90.2218 325.567 87.1216C322.579 84.5107 321.117 80.4437 321.264 76.5214C321.298 75.8585 321.955 75.3954 322.585 75.4504C324.396 75.4359 326.204 75.4301 328.014 75.4533C328.737 75.4012 329.273 76.0293 329.31 76.7153C329.644 78.9124 330.464 81.2194 332.37 82.522C336.046 84.9072 340.661 84.7451 344.873 84.8117C348.362 84.6554 352.277 84.6091 355.124 82.2905C356.627 80.9676 357.07 78.7561 356.665 76.8514C356.224 75.2449 354.554 74.4951 353.118 74.0059C345.751 71.6613 337.754 72.5123 330.456 69.8637C327.493 68.81 324.629 66.8214 323.492 63.7618C321.903 59.4314 322.631 54.0733 325.973 50.7561C329.235 47.4475 333.939 46.1767 338.413 45.7223Z" fill="black"/>
</g>
<g opacity="0.45">
<path fill-rule="evenodd" clip-rule="evenodd" d="M540.595 90.0623C541.893 89.6874 543.154 89.2911 544.371 88.8722C557.042 84.5102 565.23 77.6777 565.23 70.6125C565.23 63.2447 556.48 56.0409 543.03 51.5848C542.32 51.3492 541.591 51.1226 540.849 50.9032C541.114 49.8382 541.35 48.7917 541.552 47.7674C544.207 34.3559 542.162 23.3326 535.87 19.6898C529.777 16.1628 519.93 19.6274 509.959 28.2074C508.906 29.1137 507.848 30.0799 506.788 31.1009C505.97 30.3103 505.153 29.556 504.34 28.8447C494.046 19.8469 483.475 16.1133 477.176 19.7456C471.078 23.2628 469.162 33.5243 471.615 46.4475C471.874 47.8109 472.182 49.2088 472.537 50.6352C471.445 50.9485 470.386 51.2784 469.365 51.6274C456.428 56.0493 447.912 63.3418 447.912 70.6125C447.912 77.6522 455.844 84.439 468.265 88.7694C469.653 89.2533 471.104 89.7081 472.607 90.1348C472.279 91.4537 471.988 92.7509 471.74 94.0212C469.166 107.173 470.977 117.682 477.092 121.222C483.468 124.913 494.087 120.949 504.682 111.542C505.328 110.968 505.976 110.368 506.626 109.747C507.6 110.686 508.575 111.582 509.547 112.427C519.656 121.225 529.665 124.905 535.785 121.375C542.168 117.695 544.037 106.515 541.178 92.6381C541.004 91.793 540.808 90.9333 540.595 90.0623ZM539.484 55.7256C540.155 55.9246 540.813 56.1299 541.454 56.3423C553.067 60.1901 560.219 66.0775 560.219 70.6128C560.219 74.8705 553.596 80.3962 542.74 84.1336C541.618 84.5201 540.453 84.8864 539.253 85.2337C537.809 80.5637 535.883 75.6294 533.543 70.5883C535.995 65.4243 537.999 60.4261 539.484 55.7256ZM537.2 31.3106C537.978 35.5022 537.81 40.864 536.636 46.7944C536.453 47.7201 536.24 48.6669 536.001 49.6323C531.142 48.5091 525.783 47.6863 520.112 47.183C516.887 42.5151 513.584 38.3121 510.278 34.6967C511.266 33.7462 512.25 32.848 513.228 32.0068C521.755 24.6691 529.661 21.8874 533.359 24.0274C535.096 25.0331 536.501 27.5442 537.2 31.3106ZM479.68 24.0878C481.419 23.085 484.296 23.1215 487.909 24.3972C491.928 25.8171 496.49 28.64 501.042 32.6187C501.783 33.2669 502.528 33.9548 503.277 34.6773C499.851 38.3535 496.452 42.5519 493.206 47.1195C487.521 47.5804 482.202 48.3451 477.396 49.4078C477.066 48.0789 476.78 46.7787 476.54 45.513C474.441 34.4612 475.98 26.2222 479.68 24.0878ZM457.303 63.6395C460.541 60.8665 465.265 58.3253 470.986 56.3701C471.916 56.0522 472.883 55.7503 473.881 55.4633C475.364 60.2947 477.317 65.3671 479.671 70.4908C477.347 75.5396 475.421 80.5324 473.953 85.3078C472.553 84.91 471.204 84.4865 469.915 84.0371C459.293 80.3336 452.924 74.8847 452.924 70.6128C452.924 68.6053 454.393 66.1314 457.303 63.6395ZM479.603 116.885C475.918 114.752 474.454 106.252 476.658 94.9839C476.889 93.8043 477.159 92.5977 477.465 91.3696C482.321 92.4697 487.602 93.2912 493.12 93.8026C496.337 98.3433 499.706 102.51 503.114 106.17C502.525 106.732 501.938 107.276 501.354 107.795C492.206 115.917 483.527 119.157 479.603 116.885ZM523.697 88.3552C524.912 86.4509 526.103 84.4932 527.264 82.488C528.449 80.4405 529.575 78.4034 530.639 76.383C532.123 79.8564 533.383 83.2446 534.394 86.4852C531.026 87.2539 527.44 87.882 523.697 88.3552ZM513.531 94.2541C511.254 97.2879 508.939 100.084 506.627 102.589C504.279 100.055 501.944 97.2629 499.665 94.2572C501.945 94.3637 504.251 94.4189 506.571 94.4189C508.913 94.4189 511.236 94.3625 513.531 94.2541ZM482.546 76.3868C483.594 78.4166 484.699 80.4426 485.858 82.4534V82.4538C487.021 84.47 488.222 86.4422 489.454 88.364C485.735 87.8998 482.166 87.2873 478.818 86.5382C479.838 83.2517 481.087 79.8481 482.546 76.3868ZM478.749 54.2421C482.096 53.5138 485.719 52.9328 489.562 52.5041C488.298 54.4652 487.067 56.4761 485.878 58.5291H485.878C484.711 60.5443 483.602 62.5711 482.552 64.5994C481.062 61.0636 479.785 57.5873 478.749 54.2421ZM499.707 46.7311C502.021 43.6816 504.391 40.8466 506.766 38.2837C509.062 40.8115 511.369 43.6509 513.653 46.7553C511.326 46.6518 508.963 46.5979 506.571 46.5979C504.244 46.5979 501.954 46.643 499.707 46.7311ZM534.627 54.4593C533.577 57.7475 532.255 61.2056 530.687 64.7797C529.614 62.7115 528.479 60.6359 527.284 58.5636C526.103 56.5152 524.901 54.5238 523.683 52.5939C527.552 53.0583 531.225 53.6833 534.627 54.4593ZM517.315 51.9868C519.226 54.8521 521.109 57.8876 522.943 61.0674C524.774 64.2434 526.46 67.4232 527.984 70.5637C526.456 73.6512 524.766 76.7992 522.926 79.9767C521.108 83.1189 519.214 86.1387 517.274 89.0024C513.786 89.2684 510.203 89.4071 506.571 89.4071H506.571C502.955 89.4071 499.377 89.2694 495.888 89.0057C493.918 86.121 492.012 83.0913 490.2 79.9496L490.2 79.9502C488.393 76.8168 486.725 73.6476 485.21 70.4925C486.725 67.3447 488.398 64.1791 490.215 61.04H490.215C492.037 57.8924 493.961 54.8479 495.949 51.9451C499.369 51.7231 502.92 51.6097 506.571 51.6097C510.237 51.6097 513.834 51.7379 517.315 51.9868ZM536.27 93.65C538.738 105.631 537.21 114.768 533.282 117.034C529.593 119.161 521.498 116.185 512.837 108.647C511.941 107.867 511.04 107.04 510.139 106.173C513.492 102.559 516.833 98.3861 520.056 93.7955C525.59 93.2764 530.875 92.4407 535.743 91.3176C535.935 92.1067 536.112 92.8855 536.27 93.65Z" fill="black"/>
<path d="M506.571 81.0886C512.357 81.0886 517.047 76.3984 517.047 70.6125C517.047 64.8268 512.357 60.1363 506.571 60.1363C500.786 60.1363 496.095 64.8268 496.095 70.6125C496.095 76.3984 500.786 81.0886 506.571 81.0886Z" fill="black"/>
</g>
<g opacity="0.45">
<path d="M727.43 90.2693C731.56 89.8421 734.693 86.2818 734.55 82.0096C734.408 77.7374 730.848 74.3196 726.576 74.3196H726.291C721.876 74.462 718.459 78.1646 718.601 82.5792C718.743 84.7154 719.598 86.5667 720.88 87.8483C716.038 97.3897 708.633 104.368 697.525 110.206C689.978 114.194 682.146 115.618 674.314 114.621C667.906 113.767 662.921 110.918 659.789 106.219C655.232 99.241 654.805 91.6934 658.649 84.1457C661.355 78.7342 665.627 74.7468 668.333 72.7531C667.763 70.9018 666.909 67.7688 666.482 65.4902C645.833 80.4431 647.969 100.665 654.235 110.206C658.934 117.327 668.475 121.742 679.013 121.742C681.861 121.742 684.709 121.457 687.557 120.745C705.785 117.184 719.598 106.361 727.43 90.2693ZM752.493 72.6107C741.67 59.9363 725.721 52.9583 707.494 52.9583H705.215C703.934 50.395 701.228 48.6861 698.237 48.6861H697.953C693.538 48.8285 690.12 52.5311 690.263 56.9458C690.405 61.218 693.965 64.6358 698.237 64.6358H698.522C701.655 64.4934 704.361 62.4997 705.5 59.7939H708.063C718.886 59.7939 729.139 62.9269 738.395 69.0505C745.515 73.7499 750.642 79.8735 753.49 87.2787C755.911 93.2599 755.768 99.0986 753.205 104.083C749.218 111.631 742.525 115.76 733.696 115.76C728 115.76 722.588 114.051 719.74 112.77C718.174 114.194 715.326 116.472 713.332 117.896C719.456 120.745 725.721 122.311 731.702 122.311C745.373 122.311 755.483 114.764 759.328 107.216C763.458 98.9562 763.173 84.7154 752.493 72.6107ZM680.152 92.6902C680.295 96.9625 683.855 100.38 688.127 100.38H688.412C692.826 100.238 696.244 96.5352 696.101 92.1206C695.959 87.8483 692.399 84.4305 688.127 84.4305H687.842C687.557 84.4305 687.13 84.4305 686.845 84.573C681.007 74.8892 678.586 64.351 679.44 52.9583C680.01 44.4138 682.858 37.0086 687.842 30.885C691.972 25.6159 699.946 23.0526 705.358 22.9102C720.452 22.6254 726.86 41.4233 727.288 48.9709C729.139 49.3981 732.272 50.395 734.408 51.107C732.699 28.0369 718.459 16.0746 704.788 16.0746C691.972 16.0746 680.152 25.3311 675.453 39.0023C668.902 57.2306 673.175 74.7468 681.149 88.5604C680.437 89.5572 680.01 91.1237 680.152 92.6902Z" fill="black"/>
</g>
<g opacity="0.45">
<path d="M21.2807 388.314H147.003V514.036H21.2807V388.314Z" fill="black"/>
<path d="M54.3377 493.376L63.9589 487.554C65.815 490.845 67.5034 493.629 71.5535 493.629C75.4357 493.629 77.8833 492.111 77.8833 486.204V446.032H89.698V486.371C89.698 498.608 82.5251 504.178 72.06 504.178C62.6087 504.178 57.1224 499.283 54.3375 493.375" fill="white"/>
<path d="M96.1154 492.111L105.735 486.541C108.268 490.676 111.559 493.714 117.382 493.714C122.277 493.714 125.399 491.267 125.399 487.891C125.399 483.84 122.192 482.405 116.791 480.043L113.838 478.776C105.314 475.148 99.6594 470.591 99.6594 460.97C99.6594 452.109 106.411 445.357 116.96 445.357C124.471 445.357 129.872 447.973 133.754 454.809L124.555 460.717C122.529 457.088 120.336 455.654 116.96 455.654C113.5 455.654 111.306 457.848 111.306 460.717C111.306 464.261 113.5 465.696 118.563 467.89L121.517 469.156C131.56 473.461 137.214 477.848 137.214 487.722C137.214 498.356 128.859 504.179 117.635 504.179C106.664 504.179 99.5752 498.947 96.1156 492.111" fill="white"/>
</g>
<g opacity="0.45">
<path d="M319.906 411.407C319.906 415.445 319.849 419.483 319.929 423.519C319.973 425.642 319.13 427.219 317.532 428.492C314.959 430.542 311.931 431.63 308.83 432.527C300.889 434.82 292.723 435.714 284.513 436.196C271.478 436.96 258.46 436.709 245.567 434.494C241.142 433.733 236.818 432.351 232.488 431.108C231.176 430.733 229.962 429.948 228.776 429.23C226.425 427.802 225.274 425.797 225.323 422.904C225.45 415.312 225.43 407.717 225.332 400.125C225.294 397.322 226.437 395.499 228.865 394.241C232.304 392.458 236.071 391.904 239.795 391.25C255.87 388.426 272.049 387.575 288.324 388.977C296.369 389.669 304.385 390.635 312.216 392.689C313.967 393.148 315.654 393.895 317.325 394.613C319.153 395.4 319.938 396.866 319.915 398.868C319.875 403.042 319.906 407.224 319.906 411.407Z" fill="black"/>
<path d="M227.605 472.578C232.411 476.017 237.897 477.295 243.432 478.298C257.748 480.894 272.185 481.166 286.665 480.185C293.767 479.703 300.82 478.838 307.713 476.98C311.109 476.063 314.417 474.935 317.319 472.841C317.584 472.648 318.398 472.7 318.507 472.893C319.055 473.856 319.828 474.9 319.84 475.924C319.944 484.572 319.915 493.223 319.892 501.873C319.886 503.714 318.862 505.165 317.388 506.027C315.127 507.351 312.782 508.638 310.315 509.489C303.692 511.773 296.77 512.659 289.824 513.264C276.67 514.409 263.52 514.323 250.404 512.716C244.341 511.975 238.306 510.997 232.627 508.638C230.749 507.856 228.987 506.717 227.317 505.531C225.92 504.542 225.352 503.004 225.358 501.242C225.381 493.168 225.372 485.094 225.367 477.021C225.367 475.189 225.892 473.628 227.605 472.578Z" fill="black"/>
<path d="M227.204 433.343C231.981 437.027 237.568 438.305 243.193 439.358C256.211 441.795 269.361 442.135 282.549 441.535C290.386 441.178 298.174 440.399 305.821 438.561C310.272 437.491 314.648 436.208 318.251 433.167C319.502 433.926 319.886 435.088 319.889 436.384C319.906 445.037 319.912 453.691 319.889 462.344C319.883 464.13 318.923 465.569 317.492 466.406C315.147 467.776 312.727 469.129 310.171 470.005C303.496 472.293 296.519 473.152 289.521 473.764C278.242 474.75 266.955 474.748 255.677 473.758C248.679 473.147 241.707 472.267 235.027 469.982C232.601 469.154 230.276 467.929 228.061 466.622C226.122 465.477 225.317 463.587 225.338 461.242C225.41 453.408 225.369 445.571 225.364 437.734C225.364 436.04 225.649 434.48 227.204 433.343Z" fill="black"/>
<path d="M406.265 499.805C408.53 501.259 410.659 502.626 412.874 504.048C411.091 507.181 409.369 510.207 407.598 513.322C403.776 510.815 400.075 508.415 396.409 505.961C395.599 505.415 394.866 505.19 393.877 505.427C390.608 506.206 387.358 505.816 384.205 504.847C377.253 502.71 373.864 497.564 372.693 490.716C372.347 488.688 372.191 486.606 372.182 484.549C372.136 472.197 372.096 459.843 372.208 447.492C372.234 444.685 372.572 441.806 373.284 439.098C374.911 432.908 378.992 429.008 385.26 427.514C389.253 426.562 393.274 426.553 397.266 427.467C404.598 429.143 409.213 434.5 410.186 442.418C410.39 444.082 410.497 445.77 410.5 447.446C410.526 459.607 410.488 471.768 410.526 483.929C410.54 489.559 409.738 494.945 406.265 499.805ZM387.655 466.004C387.655 472.059 387.606 478.117 387.686 484.171C387.709 485.882 387.966 487.618 388.358 489.285C388.731 490.866 389.864 491.486 391.505 491.437C393.04 491.394 393.96 490.557 394.22 489.132C394.517 487.485 394.788 485.804 394.794 484.136C394.84 471.834 394.831 459.532 394.794 447.226C394.791 445.995 394.58 444.734 394.272 443.537C393.856 441.927 392.887 441.229 391.393 441.198C389.861 441.163 388.728 441.878 388.315 443.312C387.937 444.63 387.701 446.035 387.686 447.405C387.62 453.607 387.655 459.806 387.655 466.004Z" fill="black"/>
<path d="M330.21 476.126C335.413 476.126 340.389 476.126 345.541 476.126C345.541 479.08 345.512 481.95 345.555 484.82C345.576 486.063 345.616 487.33 345.875 488.535C346.331 490.67 347.528 491.538 349.527 491.432C351.469 491.328 352.455 490.428 352.671 488.186C353.165 483.113 352.322 478.408 348.532 474.615C344.929 471.012 341.387 467.349 337.741 463.795C330.518 456.757 328.678 448.314 331.225 438.792C333.149 431.598 338.307 427.381 345.798 427.003C348.881 426.847 352.06 427.072 355.086 427.67C360.312 428.699 363.895 431.939 365.799 436.961C367.351 441.057 367.798 445.314 367.786 449.75C362.476 449.75 357.307 449.75 351.829 449.75C351.829 448.002 351.875 446.243 351.818 444.489C351.734 441.971 349.922 440.676 347.488 441.322C345.726 441.792 344.831 443.353 345.117 445.53C345.466 448.199 346.974 450.232 348.806 452.055C350.646 453.884 352.559 455.641 354.411 457.458C356.776 459.78 359.164 462.082 361.452 464.482C365.856 469.1 368.075 474.647 368.207 481.024C368.308 485.853 368.008 490.627 366.407 495.242C364.299 501.331 360.102 504.819 353.669 505.594C350.15 506.018 346.663 505.871 343.207 505.124C336.648 503.708 332.774 499.583 331.182 493.154C329.803 487.569 330.293 481.898 330.21 476.126Z" fill="black"/>
<path d="M417.922 427.632C423.094 427.632 428.173 427.632 433.403 427.632C433.403 449.021 433.403 470.34 433.403 491.827C438.762 491.827 443.972 491.827 449.282 491.827C449.282 496.292 449.282 500.59 449.282 505.003C438.843 505.003 428.442 505.003 417.922 505.003C417.922 479.253 417.922 453.518 417.922 427.632Z" fill="black"/>
</g>
<g opacity="0.45">
<path d="M524.3 514.001L520.928 512.88C520.928 512.88 521.357 495.82 515.201 494.624C511.146 489.925 515.827 293.785 530.569 493.951C530.569 493.951 525.524 496.483 524.571 500.79C523.618 505.097 524.3 514.001 524.3 514.001Z" fill="#6B6B6B"/>
<path d="M526.122 497.529C526.122 497.529 555.421 478.237 548.554 438.166C541.949 409.054 526.337 399.488 524.665 395.825C522.815 393.237 520.956 388.659 520.956 388.659L522.198 469.772C522.198 469.772 519.62 494.54 526.122 497.529Z" fill="black"/>
<path d="M519.218 498.604C519.218 498.604 491.741 479.862 493.32 446.78C494.899 413.707 514.313 397.441 518.087 394.489C520.535 391.883 520.629 390.883 520.825 388.314C522.535 391.995 522.254 443.277 522.432 449.265C523.132 472.603 521.133 494.203 519.218 498.604Z" fill="#2B2B2B"/>
<path d="M832.944 437.961C834.514 437.961 840.503 438.232 843.287 438.232C848.472 438.232 852.088 437.961 861.813 437.961C869.969 437.961 876.827 440.156 881.732 444.36C887.664 449.48 890.813 456.618 890.813 465.316C890.813 477.667 885.161 484.805 879.508 488.831C873.856 493.036 866.541 495.418 856.067 495.418C850.509 495.418 840.96 495.231 833 495.147H832.888C832.515 494.418 833.57 491.559 834.224 491.485C836.373 491.242 836.962 491.158 837.961 490.747C839.643 490.055 840.045 489.196 840.222 486.178C840.503 480.507 840.409 473.734 840.409 466.054C840.409 460.56 840.503 449.863 840.316 446.472C840.035 443.632 838.84 442.903 836.429 442.352C835.224 442.081 833.561 441.8 831.244 441.529C831.057 440.978 832.477 438.502 832.944 437.961ZM851.434 488.831C853.377 490.392 857.273 491.027 860.701 491.027C865.149 491.027 869.502 490.205 873.762 486.365C878.116 482.432 881.078 476.387 881.078 466.783C881.078 457.543 877.556 450.041 870.334 445.65C866.26 443.09 860.972 442.081 854.956 442.081C853.199 442.081 851.434 442.174 850.415 442.632C850.135 442.819 849.584 443.547 849.584 443.912C849.397 445.556 849.397 458.094 849.397 465.503C849.397 473.098 849.397 483.712 849.584 484.992C849.677 486.085 850.228 488 851.434 488.831Z" fill="#C1BFBE"/>
<path d="M898.605 437.961C899.436 437.961 901.903 438.232 908.2 438.232C914.132 438.232 918.944 438.045 924.689 438.045C931.827 438.045 941.646 440.605 941.646 451.218C941.646 456.431 937.937 460.645 933.126 462.653C932.846 462.747 932.846 462.924 933.126 463.018C939.983 464.755 946 468.969 946 477.013C946 484.879 941.095 489.822 933.957 492.933C929.604 494.857 924.232 495.493 918.766 495.493C914.599 495.493 903.425 495.035 897.222 495.128C896.568 494.857 897.82 491.924 898.371 491.466C899.857 491.373 900.996 491.27 902.575 490.812C904.799 490.261 905.06 489.551 905.341 486.253C905.528 483.422 905.528 473.257 905.528 466.035C905.528 456.151 905.621 449.48 905.528 446.182C905.434 443.622 904.509 442.8 902.743 442.342C901.351 442.071 899.044 441.791 897.185 441.52C896.717 441.072 898.147 438.325 898.605 437.961ZM936.368 479.04C936.368 470.987 930.435 466.418 919.598 466.418C919.14 466.418 915.702 466.325 914.87 466.512C914.59 466.605 914.319 466.783 914.319 466.97C914.319 472.734 914.226 481.974 914.506 485.636C914.693 487.196 915.805 489.392 917.197 490.027C918.682 490.849 922.017 491.036 924.334 491.036C930.715 491.027 936.368 487.458 936.368 479.04ZM915.337 442.445C914.964 442.538 914.506 443.454 914.506 443.912C914.412 447.2 914.319 455.805 914.319 461.747C914.319 461.934 914.599 462.205 914.786 462.205C915.991 462.298 918.953 462.392 921.457 462.392C924.979 462.392 927.016 461.934 928.127 461.383C931.089 459.916 932.481 456.721 932.481 453.245C932.481 445.285 926.922 442.268 918.682 442.268C918.121 442.258 916.543 442.258 915.337 442.445Z" fill="#C1BFBE"/>
<path d="M567.183 495.371C567.024 495.128 566.865 494.4 566.903 493.522C566.931 492.858 567.062 492.438 567.183 492.288C568.93 492.017 569.762 491.83 570.743 491.56C572.378 491.148 572.994 490.27 573.097 488.178C573.368 483.245 573.377 473.986 573.284 467.484V467.287C573.293 466.587 573.303 465.634 572.424 464.961C571.135 464.111 569.537 463.41 567.51 462.803C566.735 462.569 566.305 462.168 566.333 461.691C566.361 461.233 566.847 460.654 567.856 460.458C570.537 460.178 577.572 458.505 580.328 457.235C580.487 457.431 580.749 457.861 580.702 458.552C580.683 458.842 580.655 459.141 580.627 459.458C580.552 460.374 580.459 461.42 580.459 462.457C580.459 462.765 580.795 463.055 581.141 463.055C581.319 463.055 581.487 462.99 581.618 462.85C586.877 458.729 591.586 457.263 594.006 457.263C597.986 457.263 601.078 459.159 603.479 463.064C603.619 463.27 603.806 463.382 604.021 463.382C604.217 463.382 604.414 463.279 604.526 463.111C609.365 459.449 614.158 457.263 617.363 457.263C624.949 457.263 629.48 462.934 629.48 472.426C629.48 475.154 629.452 478.611 629.424 481.843C629.405 484.674 629.377 487.327 629.377 489.168C629.377 489.616 629.975 490.85 630.872 491.092C631.984 491.634 633.581 491.905 635.609 492.26L635.683 492.27C635.833 492.811 635.515 494.932 635.207 495.362C634.703 495.362 634.011 495.325 633.142 495.278C631.563 495.194 629.405 495.091 626.901 495.091C621.866 495.091 619.231 495.194 616.718 495.353C616.531 494.727 616.466 492.699 616.69 492.279C618.157 492.008 618.885 491.821 619.764 491.56C621.371 491.027 621.828 490.308 621.922 488.178C621.959 486.664 622.249 473.351 621.735 470.184C621.258 466.904 618.783 463.074 613.383 463.074C611.374 463.074 608.132 463.905 605.049 466.25C604.853 466.437 604.75 466.801 604.75 467.035L604.759 467.1C605.124 468.81 605.124 470.8 605.124 473.808C605.124 475.528 605.114 477.349 605.105 479.152C605.086 482.824 605.068 486.29 605.124 488.906C605.124 490.691 606.207 491.12 607.076 491.466C607.553 491.569 607.926 491.662 608.3 491.746C609.029 491.924 609.786 492.101 610.897 492.279C611.047 492.634 611.066 493.68 610.851 494.577C610.729 495.072 610.598 495.297 610.533 495.362C607.73 495.269 604.853 495.185 600.705 495.185C599.443 495.185 597.397 495.241 595.585 495.287C594.118 495.325 592.726 495.362 591.932 495.371C591.82 495.194 591.661 494.615 591.661 493.774C591.661 492.998 591.801 492.447 591.95 492.279C592.343 492.204 592.707 492.139 593.062 492.083C594.034 491.905 594.875 491.765 595.678 491.56C597.052 491.139 597.565 490.382 597.668 488.635C597.939 484.562 598.145 472.837 597.565 469.894C596.584 465.176 593.894 462.794 589.577 462.794C587.046 462.794 583.85 464.008 581.244 465.961C580.805 466.288 580.478 467.091 580.478 467.848C580.478 469.24 580.478 470.912 580.468 472.687C580.45 478.583 580.431 485.907 580.571 489.084C580.655 490.055 581.001 491.223 582.841 491.644C583.243 491.756 583.934 491.868 584.747 492.008C585.214 492.083 585.719 492.167 586.242 492.26C586.429 492.765 586.317 494.745 585.99 495.353C585.186 495.343 584.196 495.306 583.056 495.25C581.319 495.175 579.16 495.072 576.703 495.072C573.807 495.072 571.789 495.166 570.173 495.25C569.061 495.325 568.117 495.371 567.183 495.371Z" fill="#494849"/>
<path d="M660.572 496.194C646.652 496.194 641.691 485.992 641.691 476.453C641.691 469.791 644.419 464.578 649.8 460.963C653.631 458.608 658.199 457.263 662.319 457.263C672.942 457.263 680.36 464.896 680.36 475.817C680.36 483.245 677.398 489.103 671.784 492.765C669.112 494.419 664.45 496.194 660.572 496.194ZM659.087 461.159C657.396 461.159 655.826 461.598 654.658 462.401C651.445 464.354 649.8 468.259 649.8 473.986C649.8 484.721 655.182 492.214 662.88 492.214C665.15 492.214 667.009 491.56 668.542 490.214C670.905 488.29 672.167 484.347 672.167 478.826C672.176 468.259 666.916 461.159 659.087 461.159Z" fill="#494849"/>
<path d="M804.702 496.194C790.781 496.194 785.82 486.001 785.82 476.453C785.82 469.782 788.548 464.569 793.939 460.963C797.769 458.617 802.338 457.263 806.458 457.263C817.081 457.263 824.499 464.896 824.499 475.817C824.499 483.245 821.537 489.112 815.922 492.765C813.25 494.419 808.579 496.194 804.702 496.194ZM803.225 461.159C801.534 461.159 799.965 461.598 798.788 462.401C795.574 464.354 793.939 468.259 793.939 473.986C793.939 484.721 799.32 492.214 807.019 492.214C809.289 492.214 811.148 491.56 812.68 490.214C815.044 488.29 816.305 484.347 816.305 478.835C816.305 468.259 811.045 461.159 803.225 461.159Z" fill="#494849"/>
<path d="M756.643 518.158C751.645 518.158 748.048 517.102 744.974 514.739C741.984 512.431 740.639 509.012 740.639 506.648C740.639 505.966 740.798 504.209 742.274 502.537C743.143 501.547 745.161 499.697 749.823 496.502C749.963 496.446 750.066 496.305 750.066 496.137C750.066 495.95 749.944 495.792 749.776 495.754C745.936 494.287 744.778 491.877 744.432 490.569C744.423 490.522 744.413 490.448 744.395 490.364C744.283 489.85 744.18 489.364 744.871 488.869C745.413 488.486 746.273 487.972 747.188 487.439C748.543 486.645 750.066 485.739 750.916 485.02C751.047 484.889 751.103 484.693 751.075 484.506C751.047 484.31 750.935 484.151 750.766 484.067C745.086 482.161 742.227 477.947 742.227 471.519C742.227 467.371 744.142 463.625 747.478 461.242C749.767 459.439 755.503 457.272 759.212 457.272H759.427C763.248 457.365 765.406 458.159 768.387 459.262C770.003 459.86 771.535 460.103 773.684 460.103C776.851 460.103 778.234 459.103 779.42 457.954C779.486 458.094 779.654 458.552 779.719 459.589C779.794 460.654 779.504 462.223 778.692 463.345C778.047 464.241 776.543 464.886 775.132 464.886C774.992 464.886 774.852 464.877 774.721 464.867C773.264 464.727 772.582 464.512 772.572 464.512L772.217 464.634C772.105 464.802 772.18 464.98 772.273 465.213C772.292 465.269 772.32 465.325 772.329 465.353C772.516 466.091 772.843 468.259 772.843 468.866C772.843 475.602 770.18 478.536 767.312 480.703C764.566 482.768 761.361 484.011 757.755 484.394C757.68 484.394 757.334 484.422 756.652 484.487C756.204 484.524 755.653 484.58 755.569 484.58L755.484 484.59C754.859 484.767 753.224 485.543 753.224 486.981C753.224 488.177 753.962 489.663 757.484 489.934C758.194 489.99 758.96 490.037 759.763 490.093C764.416 490.42 770.218 490.821 772.955 491.746C776.711 493.11 779.056 496.474 779.056 500.528C779.056 506.573 774.758 512.253 767.555 515.72C764.033 517.354 760.483 518.158 756.643 518.158ZM756.092 496.931C754.485 496.931 753.308 497.399 752.607 497.791C749.216 499.968 747.637 502.135 747.637 504.639C747.637 506.993 748.552 508.871 750.524 510.534C752.906 512.552 756.12 513.533 760.352 513.533C768.667 513.533 772.404 509.068 772.404 504.639C772.404 501.556 770.853 499.491 767.667 498.324C765.21 497.427 761.109 496.931 756.092 496.931ZM756.643 460.794C752.355 460.794 749.58 464.176 749.58 469.417C749.58 474.705 751.962 480.871 758.68 480.871C759.829 480.871 761.922 480.358 762.959 479.218C764.519 477.788 765.537 474.827 765.537 471.697C765.547 464.867 762.221 460.794 756.643 460.794Z" fill="#494849"/>
<path d="M734.034 492.008C731.997 491.737 730.512 491.456 728.755 490.634C728.475 490.447 728.101 489.625 728.101 489.354C727.914 486.514 727.914 478.283 727.914 472.883C727.914 468.492 727.176 464.652 725.317 461.906C723.093 458.795 719.945 456.963 715.872 456.963C712.256 456.963 707.445 459.43 703.455 462.821C703.362 462.915 702.755 463.494 702.764 462.588C702.783 461.691 702.913 459.86 702.997 458.701C703.082 457.552 702.39 457.001 702.39 457.001C699.793 458.281 692.487 460.018 689.787 460.299C687.816 460.682 687.227 462.569 689.413 463.223C689.423 463.223 689.432 463.232 689.451 463.232C691.646 463.896 693.132 464.596 694.234 465.325C695.066 465.97 694.972 466.885 694.972 467.614C695.066 473.743 695.066 483.17 694.785 488.289C694.692 490.298 694.141 491.036 692.655 491.4L692.795 491.354C691.683 491.625 690.759 491.812 689.366 491.998C688.899 492.456 688.899 495.109 689.366 495.661C690.291 495.661 695.019 495.38 698.905 495.38C704.277 495.38 707.061 495.661 708.444 495.661C709.005 495.016 709.182 492.55 708.818 491.998C707.239 491.905 706.127 491.727 705.015 491.447C703.53 491.083 703.166 490.345 703.072 488.7C702.885 484.403 702.885 475.256 702.885 469.034C702.885 467.296 703.352 466.474 703.904 466.016C705.754 464.372 708.809 463.27 711.499 463.27C714.097 463.27 715.853 464.092 717.152 465.194C718.908 466.661 719.562 468.763 719.749 470.314C720.123 473.79 720.029 480.74 720.029 486.785C720.029 490.083 719.749 490.905 718.544 491.27C717.983 491.541 716.507 491.821 714.741 491.998C714.19 492.55 714.367 495.109 714.741 495.661C717.152 495.661 719.926 495.38 724.009 495.38C729.101 495.38 732.343 495.661 733.641 495.661C734.211 495.025 734.398 492.652 734.034 492.008Z" fill="#494849"/>
</g>
</svg>
