<svg width="25" height="29" viewBox="0 0 25 29" fill="none" xmlns="http://www.w3.org/2000/svg">
<path d="M3 27.9917H22" stroke="#A80532" stroke-linecap="round" stroke-linejoin="round"/>
<path d="M20.732 18.6087H23V13.913H2V18.6087H4.268" stroke="#A80532" stroke-linecap="round" stroke-linejoin="round"/>
<path d="M2 12.7391V19.7826" stroke="#A80532" stroke-linecap="round" stroke-linejoin="round"/>
<path d="M23 12.7391V19.7826" stroke="#A80532" stroke-linecap="round" stroke-linejoin="round"/>
<path d="M1 16.2609H2" stroke="#A80532" stroke-linecap="round" stroke-linejoin="round"/>
<path d="M23 16.2609H24" stroke="#A80532" stroke-linecap="round" stroke-linejoin="round"/>
<path d="M19 11.5734V3.83383C18.9999 3.52251 18.8946 3.22397 18.707 3.00387L17.293 1.34396C17.1055 1.12379 16.8512 1.00007 16.586 1H7C6.73478 1 6.48043 1.12368 6.29289 1.34383C6.10536 1.56398 6 1.86257 6 2.17391V11.5734" stroke="#A80532" stroke-linecap="round" stroke-linejoin="round"/>
<path d="M6.39191 25.0201C6.43257 24.9882 6.47018 24.9783 6.5 24.9783C6.53807 24.9783 6.59434 24.9954 6.64971 25.0604C6.70717 25.1278 6.75 25.2342 6.75 25.3587C6.75 25.4502 6.7266 25.5346 6.68906 25.6005C6.65169 25.6662 6.60622 25.7041 6.56837 25.7225C6.5323 25.74 6.49868 25.7426 6.46738 25.7353C6.43471 25.7277 6.39194 25.7059 6.35029 25.657C6.30803 25.6074 6.27237 25.5354 6.25738 25.4469C6.24241 25.3586 6.25056 25.2676 6.2786 25.1882C6.30664 25.1087 6.34994 25.053 6.39191 25.0201Z" fill="black" stroke="#A80532"/>
<path d="M9.39191 25.0201C9.43257 24.9882 9.47018 24.9783 9.5 24.9783C9.53807 24.9783 9.59434 24.9954 9.64971 25.0604C9.70717 25.1278 9.75 25.2342 9.75 25.3587C9.75 25.4502 9.7266 25.5346 9.68906 25.6005C9.65169 25.6662 9.60622 25.7041 9.56837 25.7225C9.5323 25.74 9.49868 25.7426 9.46738 25.7353C9.43471 25.7277 9.39194 25.7059 9.35029 25.657C9.30803 25.6074 9.27237 25.5354 9.25738 25.4469C9.24241 25.3586 9.25056 25.2676 9.2786 25.1882C9.30665 25.1087 9.34994 25.053 9.39191 25.0201Z" fill="black" stroke="#A80532"/>
<path d="M12.3919 25.0201C12.4326 24.9882 12.4702 24.9783 12.5 24.9783C12.5381 24.9783 12.5943 24.9954 12.6497 25.0604C12.7072 25.1278 12.75 25.2342 12.75 25.3587C12.75 25.4502 12.7266 25.5346 12.6891 25.6005C12.6517 25.6662 12.6062 25.7041 12.5684 25.7225C12.5323 25.74 12.4987 25.7426 12.4674 25.7353C12.4347 25.7277 12.3919 25.7059 12.3503 25.657C12.308 25.6074 12.2724 25.5354 12.2574 25.4469C12.2424 25.3586 12.2506 25.2676 12.2786 25.1882C12.3066 25.1087 12.3499 25.053 12.3919 25.0201Z" fill="black" stroke="#A80532"/>
<path d="M15.3919 25.0201C15.4326 24.9882 15.4702 24.9783 15.5 24.9783C15.5381 24.9783 15.5943 24.9954 15.6497 25.0604C15.7072 25.1278 15.75 25.2342 15.75 25.3587C15.75 25.4502 15.7266 25.5346 15.6891 25.6005C15.6517 25.6662 15.6062 25.7041 15.5684 25.7225C15.5323 25.74 15.4987 25.7426 15.4674 25.7353C15.4347 25.7277 15.3919 25.7059 15.3503 25.657C15.308 25.6074 15.2724 25.5354 15.2574 25.4469C15.2424 25.3586 15.2506 25.2676 15.2786 25.1882C15.3066 25.1087 15.3499 25.053 15.3919 25.0201Z" fill="black" stroke="#A80532"/>
<path d="M18.3919 25.0201C18.4326 24.9882 18.4702 24.9783 18.5 24.9783C18.5381 24.9783 18.5943 24.9954 18.6497 25.0604C18.7072 25.1278 18.75 25.2342 18.75 25.3587C18.75 25.4502 18.7266 25.5346 18.6891 25.6005C18.6517 25.6662 18.6062 25.7041 18.5684 25.7225C18.5323 25.74 18.4987 25.7426 18.4674 25.7353C18.4347 25.7277 18.3919 25.7059 18.3503 25.657C18.308 25.6074 18.2724 25.5354 18.2574 25.4469C18.2424 25.3586 18.2506 25.2676 18.2786 25.1882C18.3066 25.1087 18.3499 25.053 18.3919 25.0201Z" fill="black" stroke="#A80532"/>
<path d="M7.89191 22.0853C7.93257 22.0534 7.97018 22.0435 8 22.0435C8.03807 22.0435 8.09434 22.0606 8.14971 22.1256C8.20717 22.193 8.25 22.2994 8.25 22.4239C8.25 22.5154 8.2266 22.5998 8.18906 22.6657C8.15169 22.7314 8.10622 22.7692 8.06837 22.7876C8.0323 22.8052 7.99868 22.8078 7.96738 22.8005C7.93471 22.7929 7.89194 22.7711 7.85029 22.7222C7.80803 22.6726 7.77237 22.6006 7.75738 22.5121C7.74241 22.4238 7.75056 22.3328 7.7786 22.2533C7.80664 22.1739 7.84994 22.1182 7.89191 22.0853Z" fill="black" stroke="#A80532"/>
<path d="M10.8919 22.0853C10.9326 22.0534 10.9702 22.0435 11 22.0435C11.0381 22.0435 11.0943 22.0606 11.1497 22.1256C11.2072 22.193 11.25 22.2994 11.25 22.4239C11.25 22.5154 11.2266 22.5998 11.1891 22.6657C11.1517 22.7314 11.1062 22.7692 11.0684 22.7876C11.0323 22.8052 10.9987 22.8078 10.9674 22.8005C10.9347 22.7929 10.8919 22.7711 10.8503 22.7222C10.808 22.6726 10.7724 22.6006 10.7574 22.5121C10.7424 22.4238 10.7506 22.3328 10.7786 22.2533C10.8066 22.1739 10.8499 22.1182 10.8919 22.0853Z" fill="black" stroke="#A80532"/>
<path d="M13.8919 22.0853C13.9326 22.0534 13.9702 22.0435 14 22.0435C14.0381 22.0435 14.0943 22.0606 14.1497 22.1256C14.2072 22.193 14.25 22.2994 14.25 22.4239C14.25 22.5154 14.2266 22.5998 14.1891 22.6657C14.1517 22.7314 14.1062 22.7692 14.0684 22.7876C14.0323 22.8052 13.9987 22.8078 13.9674 22.8005C13.9347 22.7929 13.8919 22.7711 13.8503 22.7222C13.808 22.6726 13.7724 22.6006 13.7574 22.5121C13.7424 22.4238 13.7506 22.3328 13.7786 22.2533C13.8066 22.1739 13.8499 22.1182 13.8919 22.0853Z" fill="black" stroke="#A80532"/>
<path d="M16.8919 22.0853C16.9326 22.0534 16.9702 22.0435 17 22.0435C17.0381 22.0435 17.0943 22.0606 17.1497 22.1256C17.2072 22.193 17.25 22.2994 17.25 22.4239C17.25 22.5154 17.2266 22.5998 17.1891 22.6657C17.1517 22.7314 17.1062 22.7692 17.0684 22.7876C17.0323 22.8052 16.9987 22.8078 16.9674 22.8005C16.9347 22.7929 16.8919 22.7711 16.8503 22.7222C16.808 22.6726 16.7724 22.6006 16.7574 22.5121C16.7424 22.4238 16.7506 22.3328 16.7786 22.2533C16.8066 22.1739 16.8499 22.1182 16.8919 22.0853Z" fill="black" stroke="#A80532"/>
<path d="M19 17.4348H15C14.9264 18.1316 14.6239 18.767 14.1568 19.2056C13.6898 19.6443 13.0952 19.8513 12.5 19.7826C11.9048 19.8513 11.3102 19.6443 10.8432 19.2056C10.3761 18.767 10.0736 18.1316 10 17.4348H6C5.46957 17.4348 4.96086 17.6821 4.58579 18.1224C4.21071 18.5627 4 19.1599 4 19.7826V28H21V19.7826C21 19.1599 20.7893 18.5627 20.4142 18.1224C20.0391 17.6821 19.5304 17.4348 19 17.4348Z" stroke="#A80532" stroke-linecap="round" stroke-linejoin="round"/>
</svg>
